<svg version="1.1" id="Layer_1" xmlns="http://www.w3.org/2000/svg" xmlns:xlink="http://www.w3.org/1999/xlink" x="0px" y="0px"
	 width="100%" viewBox="0 0 512 512" enable-background="new 0 0 512 512" xml:space="preserve">
<path fill="#010001" opacity="1.000000" stroke="none" 
	d="
M232.000000,513.000000 
	C155.034225,513.000000 78.068436,513.000000 1.051330,513.000000 
	C1.051330,342.443420 1.051330,171.886810 1.051330,1.000000 
	C78.688370,1.000000 156.377197,1.000000 234.524872,1.382951 
	C234.093063,3.861456 233.195312,5.954036 232.313889,8.053462 
	C231.554276,9.862756 230.115921,11.711533 230.196609,13.487480 
	C230.426025,18.537325 229.673325,24.737873 232.287247,28.296606 
	C235.643188,32.865551 239.157074,39.624294 247.281937,38.242851 
	C248.060837,38.110413 249.027420,40.425285 250.194794,40.908516 
	C251.806992,41.575890 254.221466,42.410198 255.347092,41.691853 
	C257.427673,40.364052 258.536652,37.571556 260.561890,36.086994 
	C264.675507,33.071587 267.185547,27.513632 273.507965,27.747667 
	C274.262299,27.775591 275.651031,26.107363 275.709808,25.160982 
	C275.769165,24.205917 274.702515,22.975124 273.819214,22.235126 
	C273.162811,21.685213 272.011353,21.726187 270.305023,21.318888 
	C274.104797,18.133677 272.848114,15.982448 270.465027,12.795131 
	C268.045776,9.559436 267.414368,4.987012 266.000000,1.000001 
	C348.297760,1.000000 430.595551,1.000000 512.946655,1.000000 
	C512.946655,171.557358 512.946655,342.114746 512.946655,513.000000 
	C431.311615,513.000000 349.622772,513.000000 267.475403,512.604126 
	C268.690033,507.973419 270.557983,503.800537 271.933899,499.471313 
	C272.435516,497.892975 272.101868,495.831299 271.556854,494.186462 
	C270.609344,491.326660 269.176849,488.629822 267.999237,485.842834 
	C267.563690,484.812042 267.548279,483.043579 266.871246,482.768555 
	C263.286835,481.312439 259.626129,479.611115 255.852570,479.159912 
	C250.779373,478.553284 245.553665,478.717194 240.446228,479.159882 
	C238.506134,479.328033 235.911301,480.746246 235.018585,482.367584 
	C233.140823,485.777924 231.273239,489.648682 231.064880,493.422333 
	C230.706604,499.911224 231.620224,506.470367 232.000000,513.000000 
M226.614777,340.484131 
	C226.416641,339.658173 226.218521,338.832245 226.418777,337.402588 
	C226.522964,336.270386 227.057602,334.951263 226.660416,334.036835 
	C224.347656,328.712341 221.948395,323.415802 219.323563,318.238983 
	C216.332733,312.340302 213.931305,305.848419 209.738647,300.920288 
	C202.912491,292.896729 196.668076,284.170380 187.945633,277.900726 
	C185.866425,276.406219 183.653885,275.096893 181.500015,273.706512 
	C175.423965,269.784180 169.777130,264.736633 163.166931,262.211884 
	C153.678040,258.587585 144.701630,252.766449 133.944458,253.093292 
	C132.168076,253.147263 130.397751,253.400574 128.624619,253.561768 
	C129.412323,255.707825 130.200043,257.853882 131.038574,260.466400 
	C131.038574,260.466400 131.067032,260.934753 131.017914,261.831665 
	C131.175781,264.345642 131.333664,266.859619 131.491547,269.373596 
	C132.298813,269.349854 133.106064,269.326080 133.913330,269.302338 
	C133.913330,266.507446 133.913330,263.712524 134.176376,260.272369 
	C140.191193,258.389648 145.074860,261.409729 150.324722,264.339233 
	C150.526321,264.589081 150.771683,264.783813 151.671814,264.901367 
	C152.078201,264.893677 152.484604,264.885986 153.607559,265.068573 
	C156.317017,267.275635 158.750076,270.036591 161.801117,271.559174 
	C166.312317,273.810455 171.262558,275.181946 176.470856,277.507843 
	C177.629257,279.117950 178.751297,280.755951 179.958176,282.328888 
	C180.844559,283.484131 182.393982,284.424957 182.689087,285.685730 
	C183.670654,289.879211 186.149750,289.388824 189.647980,288.555847 
	C191.075333,290.176758 193.161972,291.577698 193.791733,293.464752 
	C195.072021,297.301270 200.877228,298.748230 199.231644,304.128326 
	C199.042480,304.746796 200.968628,306.876801 201.707001,306.776855 
	C207.331085,306.015503 208.657410,309.783386 209.081085,314.033478 
	C205.933075,317.202332 206.760971,321.105682 211.709885,322.643494 
	C215.558380,323.839325 216.302887,325.434601 215.354004,329.003052 
	C214.364761,332.723206 215.651764,335.167847 220.012115,335.767487 
	C221.671570,338.848480 223.331039,341.929504 224.993408,345.876587 
	C224.834106,350.464996 225.487411,354.701447 229.464691,357.852112 
	C229.464691,352.557343 229.570633,347.826355 229.354645,343.110107 
	C229.320831,342.371521 227.823990,341.699921 226.614777,340.484131 
M403.997681,258.061920 
	C403.982269,253.025421 403.966827,247.988937 403.953339,242.021072 
	C403.932404,224.019562 403.911499,206.018051 403.630585,187.282013 
	C403.338867,185.487885 403.176331,183.660614 402.726349,181.907104 
	C401.978210,178.991699 400.420929,176.467102 403.470337,173.423141 
	C405.020996,171.875290 404.269165,168.259918 400.618317,168.139343 
	C396.477600,168.002594 394.280731,165.812759 392.972198,162.199310 
	C392.713257,161.484238 392.180878,160.437225 391.624237,160.330933 
	C388.032806,159.645172 387.932251,157.032867 387.969696,154.249832 
	C388.012238,151.086975 385.984314,150.731247 383.588562,151.246307 
	C382.382294,151.505646 381.271118,152.207169 379.746918,152.869553 
	C379.429077,151.399048 379.015564,150.323441 378.996796,149.240967 
	C378.941711,146.066772 376.660919,145.222641 374.653473,146.328232 
	C371.286743,148.182404 368.998352,146.648117 366.564545,144.963837 
	C363.032776,142.519714 357.948151,141.630066 357.442688,136.039139 
	C357.415527,135.738388 356.656311,135.245758 356.270599,135.274918 
	C351.807617,135.612213 347.690033,135.299911 345.705383,130.350388 
	C338.281219,130.366730 333.680023,124.413643 327.597717,121.581810 
	C324.932251,120.340797 323.193390,117.155449 320.957001,114.930138 
	C319.575653,113.555641 318.022491,111.186241 316.593170,111.220360 
	C308.388550,111.416199 304.081970,105.114128 301.794464,99.735146 
	C299.752380,94.933311 294.683807,94.681313 292.972809,90.196327 
	C291.752045,86.996269 287.758179,84.946289 286.080048,81.806763 
	C283.614014,77.193222 280.137024,73.871040 275.945099,70.220177 
	C275.179596,66.946259 275.422577,63.064579 271.467804,61.444500 
	C271.749847,59.629036 272.173035,57.812843 272.163605,55.998898 
	C272.162201,55.722969 269.586792,54.869843 269.163635,55.278793 
	C265.288239,59.024044 260.665710,56.389549 256.466187,57.025253 
	C254.213669,57.366226 250.964645,58.863804 249.909897,57.910084 
	C246.881226,55.171486 244.052368,56.540375 241.012100,56.862682 
	C237.733200,57.210293 234.392929,57.722794 231.143005,57.437935 
	C225.260101,56.922302 225.067184,56.894951 224.780945,63.768513 
	C223.514557,67.141129 222.248169,70.513741 220.336884,73.981110 
	C219.904465,74.024063 219.472061,74.067017 218.293030,74.089394 
	C217.570969,75.396194 216.848907,76.702995 216.049026,78.738113 
	C213.238449,83.447220 211.424286,89.614822 205.212311,90.522659 
	C200.080505,91.272636 198.753189,93.835228 199.075714,98.109070 
	C199.367569,101.976402 197.480194,103.700050 193.992401,103.895607 
	C191.442505,104.038589 189.909302,104.761421 189.872040,107.627083 
	C189.860794,108.492165 189.217834,109.963142 188.609940,110.111000 
	C182.783340,111.528191 178.996170,115.460625 174.955704,119.587219 
	C172.548080,122.046143 166.404602,120.062210 166.249008,126.184875 
	C166.240509,126.519333 164.872162,126.990768 164.094116,127.103256 
	C161.317184,127.504738 158.447021,127.495544 155.760880,128.204971 
	C154.092270,128.645645 151.878571,129.770599 151.312195,131.160156 
	C148.878479,137.130936 146.767212,138.200943 140.465012,135.739700 
	C137.049438,134.405823 135.039749,135.053665 134.999527,139.243454 
	C134.983047,140.960388 134.799774,143.504562 133.718277,144.240067 
	C128.833557,147.562088 124.832283,152.594650 117.877182,152.255554 
	C115.156403,152.122894 113.252602,153.542343 111.515701,156.914246 
	C108.893898,162.004074 103.621429,165.707565 99.593895,170.108597 
	C98.551468,171.247696 97.457436,172.719284 97.249657,174.162338 
	C96.835182,177.040970 97.018333,180.005661 96.267227,183.241135 
	C96.415367,188.564453 96.523117,193.889923 96.805931,199.206055 
	C96.824051,199.546677 98.196854,199.815231 98.944283,201.039902 
	C98.953873,211.843872 98.996651,222.648026 98.937050,233.451614 
	C98.928169,235.061539 98.550285,236.697861 98.144104,238.270569 
	C97.513428,240.712570 96.359184,243.069305 96.071526,245.537323 
	C95.708458,248.652481 95.992996,251.843140 95.992622,255.934799 
	C96.784866,261.095184 94.194305,266.835541 98.385796,272.280182 
	C99.176971,270.963379 99.726006,270.451721 99.786842,269.887390 
	C100.564568,262.673737 101.781471,255.460739 101.898376,248.231567 
	C102.197464,229.737473 102.189751,211.232742 101.941185,192.737152 
	C101.729393,176.977371 108.880730,165.796646 122.120544,157.973114 
	C126.381363,155.455368 130.511261,152.715668 134.777527,150.207596 
	C146.214157,143.484238 157.727249,136.890533 169.144409,130.134552 
	C181.859283,122.610649 194.556488,115.109367 204.181839,103.431290 
	C209.389893,97.112556 215.645111,91.633354 220.622528,85.156464 
	C223.875748,80.923180 225.640701,75.557053 228.149612,70.738609 
	C233.080109,61.269421 240.552780,59.660858 248.564590,66.080414 
	C251.260941,65.026955 253.753387,63.515957 256.413757,63.112717 
	C264.996979,61.811729 268.544983,68.181046 272.409454,74.081009 
	C273.620819,75.930428 275.441254,77.380920 277.139191,79.720665 
	C281.938599,90.639771 290.738251,98.426697 298.772247,106.702080 
	C307.579559,115.774048 317.826172,123.090981 328.903656,129.316376 
	C340.410980,135.783386 351.712952,142.630692 362.934174,149.586838 
	C370.810028,154.469147 378.800201,159.315613 385.991760,165.106476 
	C391.804321,169.786926 395.596436,176.371750 397.008118,184.921631 
	C397.006836,204.790909 396.850433,224.662430 397.138794,244.527496 
	C397.194580,248.370697 398.987976,252.188705 399.986176,256.764618 
	C399.988342,257.511902 399.990509,258.259155 399.989685,259.932007 
	C400.010101,262.899445 399.857239,265.884125 400.149536,268.824524 
	C400.245392,269.788788 401.496643,270.638214 402.219543,271.540161 
	C402.793701,270.655640 403.802856,269.799988 403.863770,268.881409 
	C404.081635,265.597534 403.977936,262.292267 403.997681,258.061920 
M224.355255,226.201965 
	C217.526398,227.242401 213.855881,233.066986 208.671768,236.597641 
	C208.522125,236.699509 208.661331,237.225510 208.047791,237.940674 
	C204.429718,239.676590 200.811661,241.412491 196.321243,243.046280 
	C192.450851,242.959991 188.526230,242.764435 186.825089,248.380112 
	C191.654083,251.680603 197.087570,254.609695 201.557358,258.614410 
	C210.543762,266.665802 219.225800,274.962494 226.505981,284.833069 
	C234.293045,295.390930 241.076874,306.369781 246.391739,318.289978 
	C247.915848,321.708282 250.270111,321.306580 251.453918,319.009735 
	C253.747116,314.560486 255.141724,309.648132 257.099579,304.275757 
	C269.686462,280.774445 287.119751,261.646912 310.476868,246.761917 
	C285.333710,237.039673 265.484955,222.186386 249.717880,201.615234 
	C246.687393,205.009491 243.942444,208.083939 240.428329,211.141800 
	C238.340759,212.307587 236.090912,213.260315 234.207764,214.694519 
	C231.983978,216.388123 229.865723,218.325287 228.102875,220.484406 
	C226.795349,222.085892 226.127930,224.210052 225.187424,226.170486 
	C225.187424,226.170486 225.119888,226.189453 224.355255,226.201965 
M368.938080,260.111206 
	C368.990417,258.749237 369.042755,257.387268 369.682190,255.753754 
	C369.818756,254.449020 369.955322,253.144302 370.091888,251.839569 
	C368.923004,251.768585 367.719055,251.487198 366.593292,251.674881 
	C364.816559,251.971085 363.083588,252.552704 361.347229,253.064728 
	C349.558960,256.540802 337.610321,259.663818 327.271912,268.069824 
	C318.608185,270.621307 312.635712,277.394165 306.252930,282.913605 
	C298.908142,289.264893 292.985809,297.478058 287.358673,305.521332 
	C283.702576,310.747223 278.421326,315.593811 278.329681,323.230133 
	C277.217987,324.818817 275.847290,326.288422 275.050323,328.021820 
	C273.547607,331.290039 272.965240,335.139465 270.914612,337.957184 
	C268.416595,341.389709 267.946198,344.523621 268.492279,348.606873 
	C269.215393,354.013641 270.924896,359.970245 265.201813,364.238251 
	C264.722748,364.595551 264.992645,366.030975 265.006836,366.964111 
	C265.111328,373.843384 265.213898,380.722900 265.369904,387.601135 
	C265.455933,391.394318 265.439117,395.212402 265.936493,398.957153 
	C266.054596,399.846252 268.049988,400.486053 269.181854,401.240509 
	C269.279053,400.045807 269.548126,398.832733 269.423035,397.661774 
	C269.307831,396.583557 268.453857,395.545837 268.469696,394.498474 
	C268.549988,389.187317 268.880859,383.880127 268.975586,378.568909 
	C269.032013,375.404633 269.438171,372.623291 272.808899,371.160980 
	C274.979126,370.219452 275.684052,368.585175 273.387238,367.108276 
	C270.346466,365.153107 271.324066,363.381134 272.761047,360.895874 
	C274.189667,358.425049 275.247559,355.552551 275.660126,352.737793 
	C276.024048,350.254913 275.273712,347.608734 275.580109,344.588348 
	C276.909454,343.092896 277.962250,340.858582 279.619202,340.238403 
	C284.909393,338.258331 285.503448,335.462189 281.172028,330.237885 
	C282.575195,326.333374 283.767334,322.608948 289.336121,322.786285 
	C292.553162,322.888733 292.822327,320.214478 290.038269,316.171448 
	C291.170410,313.345947 291.860901,310.223450 293.521942,307.753662 
	C297.625122,301.652618 305.580872,298.752777 307.727631,290.925049 
	C307.802551,290.651855 308.181335,290.460510 308.421661,290.234375 
	C311.296631,287.529541 314.172180,284.825317 317.621582,282.547150 
	C322.579590,285.009216 323.742218,284.365845 323.982330,279.032318 
	C324.027130,278.037415 324.087128,277.043152 324.872620,275.987152 
	C327.775909,275.022949 330.408478,273.564209 333.745758,275.593811 
	C335.869324,276.885284 337.913544,275.495026 337.967346,272.556335 
	C337.994659,271.062805 338.036316,269.569550 338.860687,267.975983 
	C340.628571,267.694946 342.653259,266.714752 344.119995,267.253540 
	C350.579010,269.626312 353.355042,265.566742 356.814117,260.981903 
	C358.551056,260.497589 360.275848,259.699097 362.028931,259.631104 
	C363.362823,259.579437 364.732666,260.455597 366.028534,261.832306 
	C366.183472,264.673004 366.338379,267.513733 366.493317,270.354431 
	C367.304230,270.336853 368.115143,270.319275 368.926056,270.301697 
	C368.926056,267.177673 368.926056,264.053680 368.938080,260.111206 
M145.014374,116.050026 
	C145.416824,107.965950 144.378876,100.675125 138.637344,93.962006 
	C134.095352,88.651390 133.666000,87.720703 126.767181,89.445450 
	C124.320862,90.057053 121.139870,89.502174 118.804520,88.399338 
	C114.558685,86.394318 113.313461,86.655037 111.382149,91.228706 
	C110.802734,92.600853 109.692123,94.533798 108.557465,94.740250 
	C105.052094,95.378036 104.894394,97.382759 105.194260,100.189896 
	C105.319725,101.364426 104.528557,102.607559 104.390770,103.845840 
	C104.133057,106.162003 103.882118,108.502106 103.948250,110.823135 
	C103.993919,112.425896 105.160362,114.154503 104.814781,115.582108 
	C103.604797,120.580673 103.398018,124.589203 110.277985,124.537331 
	C110.671013,124.534363 111.162300,125.024460 111.449059,125.404808 
	C114.364761,129.272125 118.417740,130.260498 123.607681,130.424210 
	C126.641685,130.393234 130.356079,129.231171 132.570251,130.563080 
	C137.410294,133.474548 138.315674,131.461578 139.646225,127.311378 
	C140.218567,125.526161 142.840500,124.375671 144.577118,122.994453 
	C145.620758,122.164406 146.752808,121.445526 147.845139,120.676689 
	C146.904266,119.442261 145.963394,118.207832 145.014374,116.050026 
M364.245575,393.011780 
	C362.572449,393.898651 360.055511,394.368286 359.374298,395.745728 
	C356.630585,401.293915 354.119507,407.019226 352.296936,412.918396 
	C351.825958,414.442963 353.996338,416.962982 355.289459,418.787537 
	C356.098328,419.928711 358.324280,420.453674 358.561615,421.548431 
	C360.031311,428.327667 365.465302,428.600616 370.545837,428.915192 
	C386.243805,429.887238 393.692780,422.865845 394.063660,407.353271 
	C394.113220,405.281036 394.878479,403.202728 395.467163,401.172119 
	C396.297211,398.308838 396.011414,396.633820 392.468048,395.849915 
	C389.947083,395.292236 387.410248,393.616852 385.482880,391.800995 
	C380.745972,387.338043 369.219696,387.833984 365.000000,393.000000 
	C365.000000,393.000000 365.003082,392.996979 364.245575,393.011780 
M200.394775,141.286041 
	C199.253937,142.188782 198.113098,143.091507 196.308731,144.183182 
	C193.520966,145.999069 190.794266,147.917908 187.935394,149.613968 
	C170.755844,159.806046 153.577393,170.000870 136.322388,180.064178 
	C132.401733,182.350754 128.542480,185.019394 128.369263,189.650284 
	C127.936699,201.214432 128.226654,212.805618 128.226654,224.131500 
	C133.447693,224.971436 138.203217,225.671509 142.931702,226.521988 
	C145.688065,227.017731 148.458145,228.471832 151.123947,228.259995 
	C163.626022,227.266602 175.780258,224.687897 187.659744,218.523346 
	C191.052078,216.766769 194.580750,215.229233 197.813919,213.216904 
	C214.636795,202.746292 227.352753,188.318253 237.534683,171.503754 
	C243.700958,161.320740 255.105576,161.687317 261.638153,171.523560 
	C267.682739,180.624985 274.205536,189.616272 281.751312,197.470993 
	C298.577332,214.985962 319.609528,225.283447 343.679443,227.791183 
	C352.475372,228.707565 361.672882,225.769318 371.034332,224.544128 
	C371.034332,212.931000 371.528503,201.440659 370.719421,190.042847 
	C370.490265,186.814804 367.086975,182.855820 364.058441,180.947708 
	C350.689148,172.524323 337.085815,164.437698 323.265472,156.773224 
	C304.129089,146.160522 286.594269,133.517838 272.105438,117.081963 
	C264.008698,107.897110 256.773651,97.952614 249.287582,88.523331 
	C246.695145,91.777748 243.817245,95.390511 240.144760,99.016968 
	C236.620895,99.053108 233.285889,99.261292 233.669601,104.237534 
	C233.724197,104.945435 233.248993,105.871391 232.727753,106.419495 
	C226.545807,112.920364 220.163712,119.238045 214.159042,125.896797 
	C211.852798,128.454254 210.373718,131.757629 208.116074,135.235901 
	C205.902939,137.084045 203.689789,138.932190 201.155228,140.840912 
	C201.155228,140.840912 201.003418,141.130615 200.394775,141.286041 
M477.066254,63.505348 
	C476.139465,62.344761 475.380157,60.971565 474.244080,60.076614 
	C472.774261,58.918697 471.006042,57.340755 469.362305,57.336067 
	C460.732391,57.311436 452.099884,57.690853 443.471130,58.007328 
	C440.308502,58.123325 438.912537,56.807144 438.981995,53.593433 
	C439.093475,48.435852 438.735962,43.252247 439.147614,38.125481 
	C439.295593,36.282253 441.109070,34.580517 442.132294,32.796894 
	C442.741028,31.735771 443.714142,30.645908 443.726837,29.559673 
	C443.736115,28.763468 442.526428,27.864992 441.725800,27.165821 
	C440.086823,25.734602 437.903320,24.712914 436.739807,22.986326 
	C429.603668,12.396786 416.307037,9.564018 405.635193,16.591957 
	C405.232605,16.857088 404.697418,17.221584 404.612305,17.622257 
	C403.565491,22.549417 402.088287,27.454790 401.719727,32.439548 
	C401.207581,39.365570 403.870880,47.584743 400.989655,53.039829 
	C396.148743,62.205139 402.602509,67.750549 404.538971,74.648224 
	C405.917297,79.557610 408.688782,84.120399 411.192993,88.641525 
	C411.926697,89.966133 413.754547,91.035568 415.294769,91.478546 
	C417.486450,92.108902 420.084106,91.547523 422.136902,92.395027 
	C426.403625,94.156548 430.397736,96.569016 434.574066,98.567284 
	C435.379089,98.952469 436.779144,99.073975 437.440582,98.628304 
	C444.317657,93.994820 452.127075,95.602715 459.266632,96.399796 
	C465.206085,97.062897 469.527924,95.192001 474.086456,92.561386 
	C479.530334,89.419846 483.610657,85.538040 482.074921,78.324524 
	C481.600281,76.095116 481.820099,73.662201 482.041443,71.353096 
	C482.388763,67.729088 481.205627,65.196243 477.066254,63.505348 
M40.454079,19.108078 
	C39.050369,20.384840 37.679348,22.705614 36.237072,22.750776 
	C31.043926,22.913391 30.317503,26.148764 31.144558,29.824680 
	C31.906618,33.211712 32.984539,37.247868 35.371651,39.365330 
	C38.302841,41.965420 39.114651,44.505676 39.064587,47.968342 
	C39.021828,50.926128 40.709492,52.380146 43.550915,51.771629 
	C47.107811,51.009876 47.699612,52.764317 48.169632,55.732582 
	C48.411682,57.261147 49.957943,59.061352 51.399609,59.831905 
	C55.678867,62.119118 56.722935,68.463867 62.607780,68.669998 
	C62.757526,68.675247 62.980099,69.887459 62.972755,70.534554 
	C62.936840,73.698036 64.620453,74.815018 67.602341,75.162567 
	C69.095810,75.336639 70.793709,76.310844 71.826797,77.444672 
	C76.651352,82.739670 82.800468,82.189911 88.982056,81.708694 
	C95.608490,81.192841 99.210381,75.451241 104.490349,72.595543 
	C104.987450,72.326683 104.805092,70.736572 104.872566,69.755379 
	C104.950325,68.624542 104.645737,67.364761 105.042076,66.375206 
	C107.550087,60.113365 106.852486,57.994026 101.426849,53.492756 
	C99.132835,51.589573 96.317406,49.573093 98.354668,45.580727 
	C99.135742,44.050087 98.902718,42.001972 99.131798,40.189659 
	C97.200150,40.320305 95.265503,40.418201 93.338020,40.594448 
	C92.261871,40.692848 91.197624,40.921417 90.128014,41.091328 
	C90.179077,39.906929 90.018379,38.665482 90.319321,37.548397 
	C91.394623,33.556946 89.838051,31.822630 85.886261,32.759426 
	C85.154831,32.932816 84.404739,33.027470 83.663254,33.158463 
	C83.902802,32.730881 84.142349,32.303299 84.381897,31.875715 
	C80.589462,28.768276 76.797020,25.660837 72.760254,22.353197 
	C72.855148,22.000357 73.143135,21.394941 73.158035,20.782877 
	C73.195847,19.229616 73.691467,17.153097 72.902687,16.273489 
	C72.198807,15.488545 70.007706,16.136240 68.498138,15.948580 
	C66.786293,15.735772 64.967613,15.597321 63.429119,14.906212 
	C55.282848,11.246810 47.276894,12.479725 40.454079,19.108078 
M396.001038,97.605667 
	C395.701141,95.170547 395.375397,92.738258 395.108948,90.299492 
	C394.862885,88.047638 394.229370,85.716484 394.576782,83.550217 
	C395.085999,80.375053 393.902344,79.133995 390.994781,79.080780 
	C386.697784,79.002136 382.391174,79.178650 378.102509,78.966576 
	C368.575378,78.495468 360.882294,82.049438 356.759888,90.562447 
	C354.757935,94.696609 348.340424,98.994415 354.544495,104.506668 
	C352.964172,107.125923 349.427673,110.023643 354.361664,111.653786 
	C357.673401,112.747948 359.109955,114.014870 359.160187,117.347717 
	C359.172211,118.143692 359.951233,119.191666 360.676697,119.668564 
	C364.179962,121.971550 367.395782,126.439468 372.118408,121.278030 
	C372.723328,120.616859 374.970825,120.674751 375.938751,121.258926 
	C381.531830,124.634399 384.170807,121.377335 388.324585,117.765717 
	C394.625610,112.287155 396.400970,106.125496 396.001038,97.605667 
M81.281395,408.753479 
	C81.695976,407.163086 82.409836,405.583374 82.467293,403.980194 
	C82.620659,399.700836 82.111694,395.368500 82.588623,391.138702 
	C83.014923,387.357910 83.029083,384.625275 78.436188,383.738983 
	C76.651154,383.394531 73.991211,382.270294 73.607590,380.953979 
	C72.359016,376.669922 72.206276,371.696777 66.267982,377.339996 
	C66.195930,377.408508 65.420448,376.511108 65.110176,376.591675 
	C63.261509,377.071716 61.391949,377.568085 59.651218,378.335358 
	C58.334435,378.915771 57.125763,380.689819 55.996254,380.583282 
	C51.000359,380.112030 49.150600,383.754456 47.923180,387.104523 
	C46.426636,391.189087 45.288574,395.739716 45.483444,400.021057 
	C45.706501,404.921539 47.441334,409.787781 52.938473,411.896027 
	C53.727093,412.198456 54.451599,413.196411 54.797546,414.039948 
	C57.241608,419.999268 57.252434,420.028107 62.767376,416.652618 
	C66.167946,420.820648 72.632500,419.454407 75.061638,414.517944 
	C76.151108,412.303894 78.677399,410.796875 81.281395,408.753479 
M391.000580,460.836823 
	C391.001221,463.329285 390.938843,465.823639 391.015015,468.313812 
	C391.203491,474.475342 394.662048,476.664978 400.254517,474.437225 
	C401.292023,474.023956 402.728546,474.498047 403.957214,474.703888 
	C406.208405,475.080994 408.430847,475.854706 410.685242,475.941071 
	C415.284454,476.117249 419.921478,476.197357 424.487305,475.749756 
	C425.684052,475.632446 427.224945,473.589294 427.629517,472.154694 
	C428.179108,470.205688 427.374237,467.886383 427.875946,465.910095 
	C429.556641,459.289551 430.418457,452.911743 425.640137,447.066406 
	C424.845428,446.094238 424.758209,444.554077 423.988556,443.548462 
	C422.931305,442.167145 421.692963,440.214081 420.259308,439.941528 
	C406.465790,437.319458 394.378448,445.102112 391.000580,460.836823 
M96.038292,320.968292 
	C96.173882,327.205994 96.094612,333.461426 96.606804,339.668060 
	C96.724464,341.093842 98.874405,342.351959 100.089088,343.687225 
	C101.006004,342.253815 102.151878,340.909363 102.756248,339.354462 
	C103.134972,338.380096 103.144623,336.731903 102.556335,335.998718 
	C98.927048,331.475433 100.258797,326.207184 99.978027,321.171539 
	C99.895012,319.682617 99.587845,318.206177 99.383392,316.724030 
	C98.929276,316.659637 98.475159,316.595276 98.021034,316.530884 
	C97.381149,317.738251 96.741257,318.945587 96.038292,320.968292 
M115.305267,351.202667 
	C110.487831,352.408813 107.957344,347.597717 103.688202,346.762451 
	C104.771446,349.195160 106.248001,351.045837 107.918327,352.700989 
	C112.118027,356.862610 112.451591,356.785065 115.305267,351.202667 
M151.201843,381.065887 
	C147.825317,380.998627 144.887619,381.633972 144.858795,385.838837 
	C144.855301,386.349945 146.573410,387.485687 147.024261,387.283752 
	C149.283218,386.272186 151.385880,384.911621 153.543488,383.673706 
	C153.005508,382.837738 152.467545,382.001770 151.201843,381.065887 
M131.899323,371.923706 
	C136.684799,373.246033 137.299530,372.834045 138.027908,367.525604 
	C135.719940,368.054108 133.493851,368.479462 131.351608,369.166290 
	C131.097382,369.247803 131.301437,370.758759 131.899323,371.923706 
M123.062584,366.502869 
	C124.192047,366.638702 125.321518,366.774536 126.450989,366.910370 
	C126.351379,366.159912 126.526871,365.032104 126.104607,364.724243 
	C124.264977,363.383148 122.251495,362.280518 120.301163,361.091248 
	C119.983192,361.476959 119.665230,361.862640 119.347267,362.248322 
	C120.416748,363.510040 121.486237,364.771759 123.062584,366.502869 
M99.050690,294.073975 
	C99.722130,294.645020 100.393570,295.216064 101.065002,295.787109 
	C101.207253,293.838226 101.349503,291.889374 101.491745,289.940491 
	C100.890816,289.897369 100.289879,289.854279 99.688942,289.811157 
	C99.467331,290.990692 99.245720,292.170227 99.050690,294.073975 
M158.876251,387.048126 
	C159.975189,387.439667 161.074142,387.831177 162.173111,388.222687 
	C162.435379,386.912567 162.697662,385.602478 162.959946,384.292358 
	C162.579269,384.060211 162.198608,383.828064 161.817947,383.595917 
	C160.767334,384.548615 159.716721,385.501312 158.876251,387.048126 
M144.899216,377.359955 
	C143.606186,376.759003 142.313171,376.158051 141.020157,375.557098 
	C143.433609,379.727173 143.433609,379.727173 144.899216,377.359955 
M113.670853,359.095856 
	C113.884041,359.057739 114.097229,359.019623 114.310410,358.981476 
	C114.100235,358.930878 113.890060,358.880310 113.670853,359.095856 
M255.499771,64.527306 
	C255.499771,64.527306 255.484467,64.486038 255.499771,64.527306 
z"/>
<path fill="#020202" opacity="1.000000" stroke="none" 
	d="
M248.000000,0.999999 
	C248.000000,1.000000 248.500000,1.000000 248.855499,1.315920 
	C251.350327,2.705251 253.830048,5.060335 255.562134,4.600323 
	C259.927551,3.440956 262.842468,5.677134 264.387787,8.412496 
	C265.638092,10.625655 264.697693,14.152765 264.471039,17.077026 
	C264.403809,17.944313 262.801086,19.049118 263.022125,19.527681 
	C265.555115,25.011595 261.792175,27.176622 258.301453,30.142353 
	C254.517365,33.357338 251.673248,34.068779 247.545029,31.068350 
	C247.190994,30.811035 246.649414,30.811726 246.248962,30.706724 
	C245.032379,31.704643 243.913559,32.622383 242.858353,33.487942 
	C233.072815,26.855770 232.925430,26.433903 236.153091,15.748423 
	C236.386841,14.974618 236.186447,14.043055 236.506104,13.326875 
	C237.419968,11.279485 238.088165,8.889163 239.604111,7.396596 
	C242.091141,4.947919 245.170456,3.100795 248.000000,0.999999 
z"/>
<path fill="#020202" opacity="1.000000" stroke="none" 
	d="
M260.000000,513.000000 
	C252.645752,513.000000 245.291504,513.000000 237.399384,512.641357 
	C234.474075,503.975647 236.310425,495.961090 239.171783,488.137878 
	C240.733719,487.037170 242.765717,485.842896 244.513901,484.322327 
	C247.852570,481.418457 251.757355,481.600220 254.969788,484.543060 
	C256.607208,486.043030 259.082672,486.612305 260.780426,488.067627 
	C261.963470,489.081726 262.880798,490.804657 263.189209,492.355652 
	C263.796753,495.411041 264.063202,498.562225 264.153625,501.682983 
	C264.218201,503.910889 264.148438,506.288086 263.425842,508.348755 
	C262.816650,510.085999 261.181213,511.463348 260.000000,513.000000 
z"/>
<path fill="#080808" opacity="1.000000" stroke="none" 
	d="
M247.536819,0.999999 
	C245.170456,3.100795 242.091141,4.947919 239.604111,7.396596 
	C238.088165,8.889163 237.419968,11.279485 236.506104,13.326875 
	C236.186447,14.043055 236.386841,14.974618 236.153091,15.748423 
	C232.925430,26.433903 233.072815,26.855770 242.858353,33.487942 
	C243.913559,32.622383 245.032379,31.704643 246.248962,30.706724 
	C246.649414,30.811726 247.190994,30.811035 247.545029,31.068350 
	C251.673248,34.068779 254.517365,33.357338 258.301453,30.142353 
	C261.792175,27.176622 265.555115,25.011595 263.022125,19.527681 
	C262.801086,19.049118 264.403809,17.944313 264.471039,17.077026 
	C264.697693,14.152765 265.638092,10.625655 264.387787,8.412496 
	C262.842468,5.677134 259.927551,3.440956 255.562134,4.600323 
	C253.830048,5.060335 251.350327,2.705251 249.105499,1.315920 
	C254.354935,1.000000 259.709869,1.000000 265.532410,1.000001 
	C267.414368,4.987012 268.045776,9.559436 270.465027,12.795131 
	C272.848114,15.982448 274.104797,18.133677 270.305023,21.318888 
	C272.011353,21.726187 273.162811,21.685213 273.819214,22.235126 
	C274.702515,22.975124 275.769165,24.205917 275.709808,25.160982 
	C275.651031,26.107363 274.262299,27.775591 273.507965,27.747667 
	C267.185547,27.513632 264.675507,33.071587 260.561890,36.086994 
	C258.536652,37.571556 257.427673,40.364052 255.347092,41.691853 
	C254.221466,42.410198 251.806992,41.575890 250.194794,40.908516 
	C249.027420,40.425285 248.060837,38.110413 247.281937,38.242851 
	C239.157074,39.624294 235.643188,32.865551 232.287247,28.296606 
	C229.673325,24.737873 230.426025,18.537325 230.196609,13.487480 
	C230.115921,11.711533 231.554276,9.862756 232.313889,8.053462 
	C233.195312,5.954036 234.093063,3.861456 234.991852,1.382951 
	C239.024551,1.000000 243.049088,1.000000 247.536819,0.999999 
z"/>
<path fill="#080808" opacity="1.000000" stroke="none" 
	d="
M260.437500,513.000000 
	C261.181213,511.463348 262.816650,510.085999 263.425842,508.348755 
	C264.148438,506.288086 264.218201,503.910889 264.153625,501.682983 
	C264.063202,498.562225 263.796753,495.411041 263.189209,492.355652 
	C262.880798,490.804657 261.963470,489.081726 260.780426,488.067627 
	C259.082672,486.612305 256.607208,486.043030 254.969788,484.543060 
	C251.757355,481.600220 247.852570,481.418457 244.513901,484.322327 
	C242.765717,485.842896 240.733719,487.037170 239.171783,488.137878 
	C236.310425,495.961090 234.474075,503.975647 236.930756,512.641357 
	C235.611115,513.000000 234.222214,513.000000 232.416656,513.000000 
	C231.620224,506.470367 230.706604,499.911224 231.064880,493.422333 
	C231.273239,489.648682 233.140823,485.777924 235.018585,482.367584 
	C235.911301,480.746246 238.506134,479.328033 240.446228,479.159882 
	C245.553665,478.717194 250.779373,478.553284 255.852570,479.159912 
	C259.626129,479.611115 263.286835,481.312439 266.871246,482.768555 
	C267.548279,483.043579 267.563690,484.812042 267.999237,485.842834 
	C269.176849,488.629822 270.609344,491.326660 271.556854,494.186462 
	C272.101868,495.831299 272.435516,497.892975 271.933899,499.471313 
	C270.557983,503.800537 268.690033,507.973419 267.008423,512.604126 
	C264.958344,513.000000 262.916656,513.000000 260.437500,513.000000 
z"/>
<path fill="#DDB156" opacity="1.000000" stroke="none" 
	d="
M201.476639,140.780319 
	C203.689789,138.932190 205.902939,137.084045 208.623901,134.835709 
	C216.314346,127.408005 223.756454,120.621056 230.580353,113.260941 
	C234.546005,108.983688 237.519440,103.786514 240.939346,99.003281 
	C243.817245,95.390511 246.695145,91.777748 249.287582,88.523331 
	C256.773651,97.952614 264.008698,107.897110 272.105438,117.081963 
	C286.594269,133.517838 304.129089,146.160522 323.265472,156.773224 
	C337.085815,164.437698 350.689148,172.524323 364.058441,180.947708 
	C367.086975,182.855820 370.490265,186.814804 370.719421,190.042847 
	C371.528503,201.440659 371.034332,212.931000 371.034332,224.544128 
	C361.672882,225.769318 352.475372,228.707565 343.679443,227.791183 
	C319.609528,225.283447 298.577332,214.985962 281.751312,197.470993 
	C274.205536,189.616272 267.682739,180.624985 261.638153,171.523560 
	C255.105576,161.687317 243.700958,161.320740 237.534683,171.503754 
	C227.352753,188.318253 214.636795,202.746292 197.813919,213.216904 
	C194.580750,215.229233 191.052078,216.766769 187.307709,218.315826 
	C186.953903,217.738708 186.952118,217.369125 186.966431,216.984467 
	C186.982513,216.969406 187.021881,216.951645 187.304596,216.873749 
	C188.063095,216.220963 188.538864,215.646088 189.377090,215.042786 
	C191.475891,214.333405 193.212250,213.652435 195.241852,212.890961 
	C196.029617,212.220367 196.524124,211.630249 197.013611,211.023773 
	C197.008575,211.007401 197.040756,211.019150 197.316742,210.928101 
	C198.068832,210.272018 198.544952,209.706970 199.335297,209.105164 
	C200.069580,209.029205 200.489594,208.990005 201.231628,208.870728 
	C202.708817,207.545731 203.863998,206.300781 205.248932,204.802887 
	C208.131470,202.176086 209.724625,199.131882 213.311142,197.149628 
	C217.926834,194.598587 221.413345,189.660614 224.783539,185.286423 
	C229.064102,179.730667 232.522491,173.546387 236.726196,167.925369 
	C243.593338,158.742905 255.588150,159.507996 261.820557,167.221375 
	C267.890259,174.733383 273.063843,182.964478 279.024048,190.571793 
	C282.446442,194.939941 286.152802,199.399231 290.621063,202.559464 
	C297.034668,207.095520 304.599091,209.994781 311.060760,214.474762 
	C321.108490,221.441086 332.526031,224.138290 344.135010,224.724686 
	C351.944672,225.119156 359.913300,222.367676 368.762054,220.861755 
	C368.762054,210.607773 368.776398,200.691010 368.726776,190.774582 
	C368.723755,190.173767 368.373108,189.372803 367.912567,189.007187 
	C362.840179,184.980270 358.006012,180.548706 352.528687,177.162704 
	C345.588440,172.872314 337.026672,170.643784 331.165222,165.322083 
	C324.902954,159.636520 315.521851,159.361252 310.755859,151.931717 
	C310.525970,151.573349 309.918671,151.354187 309.450409,151.266693 
	C298.837921,149.283875 293.884735,138.483978 284.201721,135.053955 
	C283.939453,134.961060 283.768738,134.563232 283.591125,134.284744 
	C279.481232,127.840057 274.982452,121.812599 267.467010,118.929924 
	C267.135284,118.802673 266.995728,118.198036 266.746002,117.829758 
	C262.904602,112.164719 259.125092,106.455986 255.184204,100.860970 
	C253.566742,98.564606 251.599335,96.514702 249.689087,94.230705 
	C245.819412,99.599007 243.289200,105.172813 239.026611,108.578033 
	C231.002930,114.987831 226.536682,124.646210 217.718781,130.252350 
	C213.046906,133.222580 209.110870,137.350220 204.421143,140.947388 
	C203.158646,140.886368 202.317642,140.833344 201.476639,140.780319 
M285.505707,198.524673 
	C285.505707,198.524673 285.483856,198.471466 285.505707,198.524673 
z"/>
<path fill="#050505" opacity="1.000000" stroke="none" 
	d="
M477.357208,63.746758 
	C481.205627,65.196243 482.388763,67.729088 482.041443,71.353096 
	C481.820099,73.662201 481.600281,76.095116 482.074921,78.324524 
	C483.610657,85.538040 479.530334,89.419846 474.086456,92.561386 
	C469.527924,95.192001 465.206085,97.062897 459.266632,96.399796 
	C452.127075,95.602715 444.317657,93.994820 437.440582,98.628304 
	C436.779144,99.073975 435.379089,98.952469 434.574066,98.567284 
	C430.397736,96.569016 426.403625,94.156548 422.136902,92.395027 
	C420.084106,91.547523 417.486450,92.108902 415.294769,91.478546 
	C413.754547,91.035568 411.926697,89.966133 411.192993,88.641525 
	C408.688782,84.120399 405.917297,79.557610 404.538971,74.648224 
	C402.602509,67.750549 396.148743,62.205139 400.989655,53.039829 
	C403.870880,47.584743 401.207581,39.365570 401.719727,32.439548 
	C402.088287,27.454790 403.565491,22.549417 404.612305,17.622257 
	C404.697418,17.221584 405.232605,16.857088 405.635193,16.591957 
	C416.307037,9.564018 429.603668,12.396786 436.739807,22.986326 
	C437.903320,24.712914 440.086823,25.734602 441.725800,27.165821 
	C442.526428,27.864992 443.736115,28.763468 443.726837,29.559673 
	C443.714142,30.645908 442.741028,31.735771 442.132294,32.796894 
	C441.109070,34.580517 439.295593,36.282253 439.147614,38.125481 
	C438.735962,43.252247 439.093475,48.435852 438.981995,53.593433 
	C438.912537,56.807144 440.308502,58.123325 443.471130,58.007328 
	C452.099884,57.690853 460.732391,57.311436 469.362305,57.336067 
	C471.006042,57.340755 472.774261,58.918697 474.244080,60.076614 
	C475.380157,60.971565 476.139465,62.344761 477.357208,63.746758 
M406.913544,63.555809 
	C407.092926,65.468628 406.836273,67.563965 407.544373,69.255455 
	C408.927826,72.560234 410.129700,76.685463 412.764282,78.500229 
	C415.118896,80.122108 416.902008,80.959778 417.202332,84.055023 
	C417.419891,86.296661 418.440125,88.207039 421.584412,86.879997 
	C425.619965,85.176796 428.933228,86.213539 431.634735,89.893524 
	C432.662292,91.293304 434.745331,92.918137 436.238403,92.817917 
	C447.996185,92.028648 459.993317,95.380943 471.572357,90.200226 
	C475.045593,88.646233 476.171814,87.100571 475.987183,83.695213 
	C475.764069,79.580299 475.331390,75.403557 475.786835,71.342995 
	C476.398590,65.888565 475.686127,63.384968 470.459930,63.172142 
	C459.941101,62.743786 449.372314,63.098339 438.844879,63.582130 
	C435.411896,63.739899 434.347748,63.235043 434.722656,59.662415 
	C435.064392,56.405464 435.766357,52.320717 434.237671,49.920212 
	C431.392639,45.452686 432.535492,41.628590 433.235962,37.146439 
	C433.931824,32.693989 433.494507,27.964825 432.813660,23.469156 
	C432.650116,22.389174 429.520111,21.820381 427.816254,20.901789 
	C415.730621,14.386198 405.386566,23.660629 405.047211,34.765289 
	C404.818512,42.247589 404.909393,49.744514 405.068207,57.230427 
	C405.108490,59.128651 405.954102,61.009792 406.913544,63.555809 
z"/>
<path fill="#050505" opacity="1.000000" stroke="none" 
	d="
M40.706894,18.834438 
	C47.276894,12.479725 55.282848,11.246810 63.429119,14.906212 
	C64.967613,15.597321 66.786293,15.735772 68.498138,15.948580 
	C70.007706,16.136240 72.198807,15.488545 72.902687,16.273489 
	C73.691467,17.153097 73.195847,19.229616 73.158035,20.782877 
	C73.143135,21.394941 72.855148,22.000357 72.760254,22.353197 
	C76.797020,25.660837 80.589462,28.768276 84.381897,31.875715 
	C84.142349,32.303299 83.902802,32.730881 83.663254,33.158463 
	C84.404739,33.027470 85.154831,32.932816 85.886261,32.759426 
	C89.838051,31.822630 91.394623,33.556946 90.319321,37.548397 
	C90.018379,38.665482 90.179077,39.906929 90.128014,41.091331 
	C91.197624,40.921417 92.261871,40.692848 93.338020,40.594448 
	C95.265503,40.418201 97.200150,40.320305 99.131790,40.189659 
	C98.902718,42.001972 99.135742,44.050087 98.354668,45.580727 
	C96.317406,49.573093 99.132835,51.589573 101.426849,53.492756 
	C106.852486,57.994026 107.550087,60.113365 105.042076,66.375206 
	C104.645737,67.364761 104.950325,68.624542 104.872566,69.755379 
	C104.805092,70.736572 104.987450,72.326683 104.490349,72.595543 
	C99.210381,75.451241 95.608490,81.192841 88.982056,81.708694 
	C82.800468,82.189911 76.651352,82.739670 71.826797,77.444672 
	C70.793709,76.310844 69.095810,75.336639 67.602341,75.162567 
	C64.620453,74.815018 62.936840,73.698036 62.972755,70.534554 
	C62.980099,69.887459 62.757526,68.675247 62.607780,68.669998 
	C56.722935,68.463867 55.678867,62.119118 51.399609,59.831905 
	C49.957943,59.061352 48.411682,57.261147 48.169632,55.732582 
	C47.699612,52.764317 47.107811,51.009876 43.550915,51.771629 
	C40.709492,52.380146 39.021828,50.926128 39.064587,47.968342 
	C39.114651,44.505676 38.302841,41.965420 35.371651,39.365330 
	C32.984539,37.247868 31.906618,33.211712 31.144558,29.824680 
	C30.317503,26.148764 31.043926,22.913391 36.237072,22.750776 
	C37.679348,22.705614 39.050369,20.384840 40.706894,18.834438 
M81.766579,37.708916 
	C79.366119,35.297874 77.003845,32.846832 74.543579,30.498442 
	C73.730515,29.722345 72.746063,28.910746 71.701202,28.627798 
	C65.391418,26.919107 64.417030,25.616941 64.974052,18.427740 
	C60.716778,18.427740 56.505428,18.380274 52.295849,18.445955 
	C49.861496,18.483938 47.207455,18.134243 45.049534,18.976633 
	C41.839943,20.229568 38.517056,28.088928 39.236931,31.684103 
	C40.436119,37.673069 42.584049,43.125542 48.488823,46.134342 
	C49.863445,54.495480 60.026241,54.149189 63.452068,61.152611 
	C64.482986,63.260117 68.280960,64.382034 67.776917,68.369896 
	C67.670837,69.209129 69.567513,70.711182 70.822403,71.236618 
	C74.729240,72.872490 78.676239,74.701935 82.791092,75.457916 
	C85.958206,76.039780 90.120468,76.184334 92.527687,74.568268 
	C95.102882,72.839432 95.804886,69.000580 94.508110,65.153473 
	C93.729492,62.843540 93.712074,59.147022 95.073311,57.472427 
	C98.266457,53.544201 98.568069,52.719151 94.670509,49.416050 
	C90.420464,45.814232 86.340462,42.011761 81.766579,37.708916 
z"/>
<path fill="#5691C9" opacity="1.000000" stroke="none" 
	d="
M197.193588,243.148407 
	C200.811661,241.412491 204.429718,239.676590 208.667969,237.635452 
	C214.565399,233.616638 219.842636,229.903046 225.119888,226.189453 
	C225.119888,226.189453 225.187424,226.170486 225.502411,226.046295 
	C230.944092,221.000870 236.070786,216.079620 241.197479,211.158386 
	C243.942444,208.083939 246.687393,205.009491 249.717880,201.615234 
	C265.484955,222.186386 285.333710,237.039673 310.476868,246.761917 
	C287.119751,261.646912 269.686462,280.774445 256.714966,304.791565 
	C254.067261,309.815674 251.804199,314.323975 249.304199,319.304291 
	C236.952789,288.941315 217.008606,265.310425 190.025879,247.134308 
	C192.881454,245.546341 195.037521,244.347382 197.193588,243.148407 
M301.929688,248.894806 
	C301.149384,247.659668 300.656067,245.973724 299.541260,245.263916 
	C293.189575,241.219818 287.022308,236.634583 280.167084,233.687943 
	C267.953308,228.437927 260.863770,217.810608 251.907990,209.092682 
	C250.970673,208.180267 248.142685,207.593994 247.546448,208.196609 
	C241.406616,214.402191 235.567673,220.904388 229.588470,227.270935 
	C228.461853,228.470566 227.215805,229.661179 225.804794,230.473770 
	C216.976959,235.557648 208.047318,240.466766 199.287506,245.663193 
	C198.540176,246.106522 198.117310,248.819122 198.687500,249.460098 
	C201.036331,252.100586 203.569717,254.741486 206.506577,256.661194 
	C213.300079,261.101807 219.170074,266.301117 223.813705,273.050262 
	C226.337311,276.718079 230.671417,279.285797 232.673294,283.137421 
	C237.190140,291.827942 244.456223,298.878143 247.388046,308.492798 
	C248.381378,311.750305 250.651596,311.053314 252.062088,308.752747 
	C255.207825,303.621918 258.665527,298.559143 260.916016,293.029083 
	C265.186066,282.536316 273.539764,275.194244 280.590027,267.019989 
	C286.465546,260.207764 294.446960,255.211868 301.929688,248.894806 
z"/>
<path fill="#0B0904" opacity="1.000000" stroke="none" 
	d="
M276.982910,79.014008 
	C275.441254,77.380920 273.620819,75.930428 272.409454,74.081009 
	C268.544983,68.181046 264.996979,61.811729 256.413757,63.112717 
	C253.753387,63.515957 251.260941,65.026955 248.564590,66.080414 
	C240.552780,59.660858 233.080109,61.269421 228.149612,70.738609 
	C225.640701,75.557053 223.875748,80.923180 220.622528,85.156464 
	C215.645111,91.633354 209.389893,97.112556 204.181839,103.431290 
	C194.556488,115.109367 181.859283,122.610649 169.144409,130.134552 
	C157.727249,136.890533 146.214157,143.484238 134.777527,150.207596 
	C130.511261,152.715668 126.381363,155.455368 122.120544,157.973114 
	C108.880730,165.796646 101.729393,176.977371 101.941185,192.737152 
	C102.189751,211.232742 102.197464,229.737473 101.898376,248.231567 
	C101.781471,255.460739 100.564568,262.673737 99.786842,269.887390 
	C99.726006,270.451721 99.176971,270.963379 98.385796,272.280182 
	C94.194305,266.835541 96.784866,261.095184 96.386520,255.433624 
	C100.651169,254.303040 99.968056,251.240387 99.974564,248.705292 
	C100.016258,232.467255 99.984955,216.229019 99.978691,199.590042 
	C99.987663,198.120163 99.995590,197.051117 100.009476,195.586441 
	C100.014610,194.135880 100.013779,193.080917 100.011841,191.606842 
	C99.988998,189.791519 99.967278,188.395355 99.966614,186.583038 
	C101.187294,174.703735 106.732178,165.595627 116.042534,159.191071 
	C124.231682,153.557800 133.099625,148.920334 141.570557,143.685776 
	C158.931335,132.957809 177.459976,124.064545 192.958817,110.410873 
	C204.009445,100.675835 213.645386,89.831131 221.400818,76.916870 
	C224.414352,72.143639 227.164505,67.580086 230.249786,62.861893 
	C235.570984,59.612972 240.841125,59.227364 246.384079,60.936382 
	C247.788406,61.369370 249.482010,62.065430 250.713928,61.654644 
	C257.069031,59.535542 263.084534,60.558945 269.223419,63.266083 
	C271.286163,66.036263 273.176361,68.521820 275.199677,71.330170 
	C275.963287,73.658730 276.593750,75.664490 277.156128,78.004791 
	C277.052979,78.564232 277.017944,78.789124 276.982910,79.014008 
z"/>
<path fill="#443617" opacity="1.000000" stroke="none" 
	d="
M221.137451,77.126549 
	C213.645386,89.831131 204.009445,100.675835 192.958817,110.410873 
	C177.459976,124.064545 158.931335,132.957809 141.570557,143.685776 
	C133.099625,148.920334 124.231682,153.557800 116.042534,159.191071 
	C106.732178,165.595627 101.187294,174.703735 99.744476,186.774078 
	C94.534615,188.257507 98.078880,184.259247 96.954651,182.934799 
	C97.018333,180.005661 96.835182,177.040970 97.249657,174.162338 
	C97.457436,172.719284 98.551468,171.247696 99.593895,170.108597 
	C103.621429,165.707565 108.893898,162.004074 111.515701,156.914246 
	C113.252602,153.542343 115.156403,152.122894 117.877182,152.255554 
	C124.832283,152.594650 128.833557,147.562088 133.718277,144.240067 
	C134.799774,143.504562 134.983047,140.960388 134.999527,139.243454 
	C135.039749,135.053665 137.049438,134.405823 140.465012,135.739700 
	C146.767212,138.200943 148.878479,137.130936 151.312195,131.160156 
	C151.878571,129.770599 154.092270,128.645645 155.760880,128.204971 
	C158.447021,127.495544 161.317184,127.504738 164.094116,127.103256 
	C164.872162,126.990768 166.240509,126.519333 166.249008,126.184875 
	C166.404602,120.062210 172.548080,122.046143 174.955704,119.587219 
	C178.996170,115.460625 182.783340,111.528191 188.609940,110.111000 
	C189.217834,109.963142 189.860794,108.492165 189.872040,107.627083 
	C189.909302,104.761421 191.442505,104.038589 193.992401,103.895607 
	C197.480194,103.700050 199.367569,101.976402 199.075714,98.109070 
	C198.753189,93.835228 200.080505,91.272636 205.212311,90.522659 
	C211.424286,89.614822 213.238449,83.447220 216.340668,78.191566 
	C217.434753,76.466667 218.237198,75.288315 219.039642,74.109970 
	C219.472061,74.067017 219.904465,74.024063 220.668030,74.339493 
	C221.045258,75.507431 221.091354,76.316994 221.137451,77.126549 
z"/>
<path fill="#443617" opacity="1.000000" stroke="none" 
	d="
M277.224213,77.670250 
	C276.593750,75.664490 275.963287,73.658730 275.429443,71.334747 
	C275.526031,71.016518 275.986816,71.008926 275.986816,71.008926 
	C280.137024,73.871040 283.614014,77.193222 286.080048,81.806763 
	C287.758179,84.946289 291.752045,86.996269 292.972809,90.196327 
	C294.683807,94.681313 299.752380,94.933311 301.794464,99.735146 
	C304.081970,105.114128 308.388550,111.416199 316.593170,111.220360 
	C318.022491,111.186241 319.575653,113.555641 320.957001,114.930138 
	C323.193390,117.155449 324.932251,120.340797 327.597717,121.581810 
	C333.680023,124.413643 338.281219,130.366730 345.705383,130.350388 
	C347.690033,135.299911 351.807617,135.612213 356.270599,135.274918 
	C356.656311,135.245758 357.415527,135.738388 357.442688,136.039139 
	C357.948151,141.630066 363.032776,142.519714 366.564545,144.963837 
	C368.998352,146.648117 371.286743,148.182404 374.653473,146.328232 
	C376.660919,145.222641 378.941711,146.066772 378.996796,149.240967 
	C379.015564,150.323441 379.429077,151.399048 379.746918,152.869553 
	C381.271118,152.207169 382.382294,151.505646 383.588562,151.246307 
	C385.984314,150.731247 388.012238,151.086975 387.969696,154.249832 
	C387.932251,157.032867 388.032806,159.645172 391.624237,160.330933 
	C392.180878,160.437225 392.713257,161.484238 392.972198,162.199310 
	C394.280731,165.812759 396.477600,168.002594 400.618317,168.139343 
	C404.269165,168.259918 405.020996,171.875290 403.470337,173.423141 
	C400.420929,176.467102 401.978210,178.991699 402.726349,181.907104 
	C403.176331,183.660614 403.338867,185.487885 403.578247,187.958954 
	C402.417053,190.390060 401.308136,192.144211 400.174011,193.455109 
	C400.012146,190.332230 399.875519,187.652588 399.753448,184.586853 
	C398.038849,172.595795 391.923126,163.735886 382.118988,157.677170 
	C367.830048,148.846985 353.459320,140.115570 338.784637,131.950943 
	C315.569885,119.034813 295.787262,102.427505 280.604675,80.501923 
	C279.797699,79.336555 278.365417,78.604187 277.224213,77.670250 
z"/>
<path fill="#E5B651" opacity="1.000000" stroke="none" 
	d="
M201.315933,140.810608 
	C202.317642,140.833344 203.158646,140.886368 204.369995,141.283066 
	C201.266464,145.936569 198.093369,150.342636 191.876175,151.418304 
	C189.097153,151.899094 186.659637,154.353729 184.012009,155.853287 
	C183.956894,155.793976 183.718536,155.828690 183.718536,155.828690 
	C183.718536,155.828690 183.913132,156.067795 183.840118,156.353714 
	C181.494995,157.732422 179.126160,158.662460 176.966919,159.945267 
	C165.708328,166.634125 154.903900,174.243423 143.159058,179.911163 
	C132.762390,184.928314 131.048309,193.093369 130.968491,202.833969 
	C130.949417,205.161880 130.959610,207.490036 130.954315,209.818069 
	C130.933777,218.859909 130.931122,218.865738 139.241821,222.199905 
	C148.532211,225.927139 158.298370,227.090302 167.085083,222.221786 
	C173.540817,218.644821 180.489960,219.233856 186.950348,216.999542 
	C186.952118,217.369125 186.953903,217.738708 186.962830,218.384979 
	C175.780258,224.687897 163.626022,227.266602 151.123947,228.259995 
	C148.458145,228.471832 145.688065,227.017731 142.931702,226.521988 
	C138.203217,225.671509 133.447693,224.971436 128.226654,224.131500 
	C128.226654,212.805618 127.936699,201.214432 128.369263,189.650284 
	C128.542480,185.019394 132.401733,182.350754 136.322388,180.064178 
	C153.577393,170.000870 170.755844,159.806046 187.935394,149.613968 
	C190.794266,147.917908 193.520966,145.999069 196.872879,144.224075 
	C198.625824,143.220184 199.814621,142.175400 201.003418,141.130615 
	C201.003418,141.130615 201.155228,140.840912 201.315933,140.810608 
z"/>
<path fill="#050505" opacity="1.000000" stroke="none" 
	d="
M396.001099,98.072510 
	C396.400970,106.125496 394.625610,112.287155 388.324585,117.765717 
	C384.170807,121.377335 381.531830,124.634399 375.938751,121.258926 
	C374.970825,120.674751 372.723328,120.616859 372.118408,121.278030 
	C367.395782,126.439468 364.179962,121.971550 360.676697,119.668564 
	C359.951233,119.191666 359.172211,118.143692 359.160187,117.347717 
	C359.109955,114.014870 357.673401,112.747948 354.361664,111.653786 
	C349.427673,110.023643 352.964172,107.125923 354.544495,104.506668 
	C348.340424,98.994415 354.757935,94.696609 356.759888,90.562447 
	C360.882294,82.049438 368.575378,78.495468 378.102509,78.966576 
	C382.391174,79.178650 386.697784,79.002136 390.994781,79.080780 
	C393.902344,79.133995 395.085999,80.375053 394.576782,83.550217 
	C394.229370,85.716484 394.862885,88.047638 395.108948,90.299492 
	C395.375397,92.738258 395.701141,95.170547 396.001099,98.072510 
M362.605133,91.091087 
	C359.277649,91.836044 358.107208,94.129379 358.015106,97.306244 
	C357.818665,104.082260 359.749054,109.145920 365.632812,113.791145 
	C373.487762,119.992607 382.116455,119.779785 386.764771,111.317780 
	C387.092957,110.720299 387.986664,110.206230 388.693481,110.080284 
	C393.835419,109.164047 393.168915,105.766029 392.348022,102.100029 
	C391.937225,100.265526 391.391174,98.150810 391.913025,96.476631 
	C393.431122,91.606255 391.221130,88.677055 387.277924,86.804153 
	C384.325104,85.401665 381.062347,84.639977 377.918274,83.654686 
	C372.929382,82.091270 369.740204,83.453148 366.923431,87.868408 
	C366.119354,89.128738 364.571106,89.914284 362.605133,91.091087 
z"/>
<path fill="#080808" opacity="1.000000" stroke="none" 
	d="
M80.916542,408.861267 
	C78.677399,410.796875 76.151108,412.303894 75.061638,414.517944 
	C72.632500,419.454407 66.167946,420.820648 62.767376,416.652618 
	C57.252434,420.028107 57.241608,419.999268 54.797546,414.039948 
	C54.451599,413.196411 53.727093,412.198456 52.938473,411.896027 
	C47.441334,409.787781 45.706501,404.921539 45.483444,400.021057 
	C45.288574,395.739716 46.426636,391.189087 47.923180,387.104523 
	C49.150600,383.754456 51.000359,380.112030 55.996254,380.583282 
	C57.125763,380.689819 58.334435,378.915771 59.651218,378.335358 
	C61.391949,377.568085 63.261509,377.071716 65.110176,376.591675 
	C65.420448,376.511108 66.195930,377.408508 66.267982,377.339996 
	C72.206276,371.696777 72.359016,376.669922 73.607590,380.953979 
	C73.991211,382.270294 76.651154,383.394531 78.436188,383.738983 
	C83.029083,384.625275 83.014923,387.357910 82.588623,391.138702 
	C82.111694,395.368500 82.620659,399.700836 82.467293,403.980194 
	C82.409836,405.583374 81.695976,407.163086 80.916542,408.861267 
M64.539520,384.202271 
	C61.199749,384.544373 57.854523,384.842590 54.523697,385.256653 
	C53.589287,385.372803 52.320232,385.546265 51.846783,386.176086 
	C48.721649,390.333435 47.363457,395.008514 48.320122,400.233948 
	C49.232174,405.215698 50.982723,410.097168 56.418179,411.075165 
	C61.013790,411.902100 66.131432,411.991852 70.607430,410.828308 
	C77.893578,408.934204 81.100967,392.327087 74.864586,388.295746 
	C72.147339,386.539276 69.946617,381.822418 64.539520,384.202271 
z"/>
<path fill="#181105" opacity="1.000000" stroke="none" 
	d="
M277.156128,78.004791 
	C278.365417,78.604187 279.797699,79.336555 280.604675,80.501923 
	C295.787262,102.427505 315.569885,119.034813 338.784637,131.950943 
	C353.459320,140.115570 367.830048,148.846985 382.118988,157.677170 
	C391.923126,163.735886 398.038849,172.595795 399.500916,184.453461 
	C398.497192,184.464294 397.760590,184.222412 397.024017,183.980545 
	C395.596436,176.371750 391.804321,169.786926 385.991760,165.106476 
	C378.800201,159.315613 370.810028,154.469147 362.934174,149.586838 
	C351.712952,142.630692 340.410980,135.783386 328.903656,129.316376 
	C317.826172,123.090981 307.579559,115.774048 298.772247,106.702080 
	C290.738251,98.426697 281.938599,90.639771 277.061035,79.367340 
	C277.017944,78.789124 277.052979,78.564232 277.156128,78.004791 
z"/>
<path fill="#080808" opacity="1.000000" stroke="none" 
	d="
M391.005341,460.393036 
	C394.378448,445.102112 406.465790,437.319458 420.259308,439.941528 
	C421.692963,440.214081 422.931305,442.167145 423.988556,443.548462 
	C424.758209,444.554077 424.845428,446.094238 425.640137,447.066406 
	C430.418457,452.911743 429.556641,459.289551 427.875946,465.910095 
	C427.374237,467.886383 428.179108,470.205688 427.629517,472.154694 
	C427.224945,473.589294 425.684052,475.632446 424.487305,475.749756 
	C419.921478,476.197357 415.284454,476.117249 410.685242,475.941071 
	C408.430847,475.854706 406.208405,475.080994 403.957214,474.703888 
	C402.728546,474.498047 401.292023,474.023956 400.254517,474.437225 
	C394.662048,476.664978 391.203491,474.475342 391.015015,468.313812 
	C390.938843,465.823639 391.001221,463.329285 391.005341,460.393036 
M408.762939,472.994415 
	C409.595642,472.995483 410.437897,472.914398 411.259613,473.009857 
	C424.441284,474.541382 429.016510,460.833954 424.591858,450.763275 
	C423.498169,448.273987 419.620056,445.355438 417.173645,445.485657 
	C413.115417,445.701660 409.267609,447.369049 405.399384,444.612152 
	C404.938446,444.283600 403.225616,444.865936 402.779083,445.505188 
	C400.514526,448.747314 394.187988,450.613983 398.814178,456.412140 
	C399.084778,456.751312 398.776337,457.660370 398.577179,458.250153 
	C396.030060,465.793518 399.937592,472.004883 408.762939,472.994415 
z"/>
<path fill="#080808" opacity="1.000000" stroke="none" 
	d="
M364.996338,393.001221 
	C369.219696,387.833984 380.745972,387.338043 385.482880,391.800995 
	C387.410248,393.616852 389.947083,395.292236 392.468048,395.849915 
	C396.011414,396.633820 396.297211,398.308838 395.467163,401.172119 
	C394.878479,403.202728 394.113220,405.281036 394.063660,407.353271 
	C393.692780,422.865845 386.243805,429.887238 370.545837,428.915192 
	C365.465302,428.600616 360.031311,428.327667 358.561615,421.548431 
	C358.324280,420.453674 356.098328,419.928711 355.289459,418.787537 
	C353.996338,416.962982 351.825958,414.442963 352.296936,412.918396 
	C354.119507,407.019226 356.630585,401.293915 359.374298,395.745728 
	C360.055511,394.368286 362.572449,393.898651 364.441528,393.293640 
	C362.723785,396.237518 359.809662,398.670013 359.133667,401.616058 
	C358.148621,405.908813 358.771362,410.571045 358.727325,415.075989 
	C358.726196,415.193420 358.929291,415.328033 359.057190,415.429291 
	C362.534760,418.181427 365.821533,421.230804 369.533478,423.619354 
	C378.247589,429.226807 390.587952,422.967041 390.699371,412.420776 
	C390.754730,407.179382 388.701935,401.753784 386.754425,396.741119 
	C386.074066,394.989960 382.932861,393.392517 380.771637,393.178680 
	C375.558350,392.662933 370.260254,393.005035 364.996338,393.001221 
z"/>
<path fill="#080808" opacity="1.000000" stroke="none" 
	d="
M122.968208,130.030396 
	C118.417740,130.260498 114.364761,129.272125 111.449059,125.404808 
	C111.162300,125.024460 110.671013,124.534363 110.277985,124.537331 
	C103.398018,124.589203 103.604797,120.580673 104.814781,115.582108 
	C105.160362,114.154503 103.993919,112.425896 103.948250,110.823135 
	C103.882118,108.502106 104.133057,106.162003 104.390770,103.845840 
	C104.528557,102.607559 105.319725,101.364426 105.194260,100.189896 
	C104.894394,97.382759 105.052094,95.378036 108.557465,94.740250 
	C109.692123,94.533798 110.802734,92.600853 111.382149,91.228706 
	C113.313461,86.655037 114.558685,86.394318 118.804520,88.399338 
	C121.139870,89.502174 124.320862,90.057053 126.767181,89.445450 
	C133.666000,87.720703 134.095352,88.651390 138.637344,93.962006 
	C144.378876,100.675125 145.416824,107.965950 144.616852,116.520271 
	C143.150360,116.999100 142.081375,117.007690 141.039551,116.607704 
	C140.901779,111.628723 141.299438,106.932877 140.320877,102.543877 
	C139.870712,100.524834 136.228455,97.379745 134.898224,97.761086 
	C131.714523,98.673790 130.373001,97.841660 128.910477,95.407333 
	C128.492722,94.712006 127.292435,94.298721 126.379303,94.117752 
	C115.324417,91.926865 105.251450,102.696136 108.300743,113.590683 
	C109.084808,116.392006 110.158134,119.892456 114.569557,116.889771 
	C112.986526,125.091888 113.147690,125.307335 121.691185,127.289406 
	C122.156342,127.397324 122.564926,127.749054 122.998520,128.327682 
	C122.987526,129.122177 122.977867,129.576294 122.968208,130.030396 
z"/>
<path fill="#080808" opacity="1.000000" stroke="none" 
	d="
M130.987747,259.999939 
	C130.200043,257.853882 129.412323,255.707825 128.624619,253.561768 
	C130.397751,253.400574 132.168076,253.147263 133.944458,253.093292 
	C144.701630,252.766449 153.678040,258.587585 163.166931,262.211884 
	C169.777130,264.736633 175.423965,269.784180 181.500015,273.706512 
	C183.653885,275.096893 185.866425,276.406219 187.945633,277.900726 
	C196.668076,284.170380 202.912491,292.896729 209.738647,300.920288 
	C213.931305,305.848419 216.332733,312.340302 219.323563,318.238983 
	C221.948395,323.415802 224.347656,328.712341 226.660416,334.036835 
	C227.057602,334.951263 226.522964,336.270386 225.999756,337.492798 
	C225.050385,336.716095 224.520065,335.849121 223.954422,334.612915 
	C221.366501,329.158600 218.813919,324.073517 216.161194,318.638977 
	C209.009293,303.107971 198.601028,290.721344 184.892212,280.675903 
	C182.180344,278.537415 179.578949,276.714020 176.733032,274.670837 
	C168.635223,269.984619 160.781921,265.518219 152.556076,261.016937 
	C147.006317,259.242676 141.804657,257.572083 136.659592,255.742310 
	C132.488754,254.258972 130.647171,255.607941 130.987747,259.999939 
z"/>
<path fill="#060D13" opacity="1.000000" stroke="none" 
	d="
M338.071533,268.076172 
	C338.036316,269.569550 337.994659,271.062805 337.967346,272.556335 
	C337.913544,275.495026 335.869324,276.885284 333.745758,275.593811 
	C330.408478,273.564209 327.775909,275.022949 324.327087,275.793335 
	C321.516113,277.026794 319.250641,278.454041 316.694427,280.063171 
	C301.306946,290.612885 290.432404,304.457916 282.587830,321.193512 
	C281.250732,322.621399 280.162964,323.859406 279.056976,324.747070 
	C279.017334,323.929413 278.995941,323.462067 278.974548,322.994751 
	C278.421326,315.593811 283.702576,310.747223 287.358673,305.521332 
	C292.985809,297.478058 298.908142,289.264893 306.252930,282.913605 
	C312.635712,277.394165 318.608185,270.621307 327.914551,268.197845 
	C331.366882,267.543945 334.176544,266.762024 337.056580,266.271515 
	C337.441833,267.067322 337.756683,267.571747 338.071533,268.076172 
z"/>
<path fill="#050505" opacity="1.000000" stroke="none" 
	d="
M278.652100,323.112427 
	C278.995941,323.462067 279.017334,323.929413 279.014709,325.117554 
	C278.587067,327.551971 278.183411,329.265594 277.518555,331.208344 
	C275.979736,335.101440 274.592255,338.733917 273.526764,342.458557 
	C273.337219,343.121094 274.485077,344.166199 275.015381,345.034668 
	C275.273712,347.608734 276.024048,350.254913 275.660126,352.737793 
	C275.247559,355.552551 274.189667,358.425049 272.761047,360.895874 
	C271.324066,363.381134 270.346466,365.153107 273.387238,367.108276 
	C275.684052,368.585175 274.979126,370.219452 272.808899,371.160980 
	C269.438171,372.623291 269.032013,375.404633 268.975586,378.568909 
	C268.880859,383.880127 268.549988,389.187317 268.469696,394.498474 
	C268.453857,395.545837 269.307831,396.583557 269.423035,397.661774 
	C269.548126,398.832733 269.279053,400.045807 269.181854,401.240509 
	C268.049988,400.486053 266.054596,399.846252 265.936493,398.957153 
	C265.439117,395.212402 265.455933,391.394318 265.369904,387.601135 
	C265.213898,380.722900 265.111328,373.843384 265.006836,366.964111 
	C264.992645,366.030975 264.722748,364.595551 265.201813,364.238251 
	C270.924896,359.970245 269.215393,354.013641 268.492279,348.606873 
	C267.946198,344.523621 268.416595,341.389709 270.914612,337.957184 
	C272.965240,335.139465 273.547607,331.290039 275.050323,328.021820 
	C275.847290,326.288422 277.217987,324.818817 278.652100,323.112427 
z"/>
<path fill="#142433" opacity="1.000000" stroke="none" 
	d="
M196.757416,243.097351 
	C195.037521,244.347382 192.881454,245.546341 190.025879,247.134308 
	C217.008606,265.310425 236.952789,288.941315 249.304199,319.304291 
	C251.804199,314.323975 254.067261,309.815674 256.619507,305.117493 
	C255.141724,309.648132 253.747116,314.560486 251.453918,319.009735 
	C250.270111,321.306580 247.915848,321.708282 246.391739,318.289978 
	C241.076874,306.369781 234.293045,295.390930 226.505981,284.833069 
	C219.225800,274.962494 210.543762,266.665802 201.557358,258.614410 
	C197.087570,254.609695 191.654083,251.680603 186.825089,248.380112 
	C188.526230,242.764435 192.450851,242.959991 196.757416,243.097351 
z"/>
<path fill="#181105" opacity="1.000000" stroke="none" 
	d="
M269.050842,62.981457 
	C263.084534,60.558945 257.069031,59.535542 250.713928,61.654644 
	C249.482010,62.065430 247.788406,61.369370 246.384079,60.936382 
	C240.841125,59.227364 235.570984,59.612972 229.851196,62.868755 
	C227.785522,63.057922 226.453598,63.085587 225.121658,63.113255 
	C225.067184,56.894951 225.260101,56.922302 231.143005,57.437935 
	C234.392929,57.722794 237.733200,57.210293 241.012100,56.862682 
	C244.052368,56.540375 246.881226,55.171486 249.909897,57.910084 
	C250.964645,58.863804 254.213669,57.366226 256.466187,57.025253 
	C260.665710,56.389549 265.288239,59.024044 269.163635,55.278793 
	C269.586792,54.869843 272.162201,55.722969 272.163605,55.998898 
	C272.173035,57.812843 271.749847,59.629036 270.961090,61.790512 
	C269.986542,62.418167 269.518677,62.699810 269.050842,62.981457 
z"/>
<path fill="#0B0904" opacity="1.000000" stroke="none" 
	d="
M397.016052,184.451080 
	C397.760590,184.222412 398.497192,184.464294 399.486328,184.839554 
	C399.875519,187.652588 400.012146,190.332230 400.116028,193.932434 
	C400.078491,210.871628 400.073761,226.890259 400.047943,243.380905 
	C400.011169,247.908051 399.995514,251.963196 399.979858,256.018341 
	C398.987976,252.188705 397.194580,248.370697 397.138794,244.527496 
	C396.850433,224.662430 397.006836,204.790909 397.016052,184.451080 
z"/>
<path fill="#312713" opacity="1.000000" stroke="none" 
	d="
M400.069031,242.908905 
	C400.073761,226.890259 400.078491,210.871628 400.141235,194.375671 
	C401.308136,192.144211 402.417053,190.390060 403.708252,188.326233 
	C403.911499,206.018051 403.932404,224.019562 403.564270,242.504120 
	C402.139832,242.961090 401.104462,242.934998 400.069031,242.908905 
z"/>
<path fill="#182D41" opacity="1.000000" stroke="none" 
	d="
M185.002686,280.991058 
	C198.601028,290.721344 209.009293,303.107971 215.774445,318.617859 
	C213.591446,317.264832 211.695053,315.583466 209.798676,313.902130 
	C208.657410,309.783386 207.331085,306.015503 201.707001,306.776855 
	C200.968628,306.876801 199.042480,304.746796 199.231644,304.128326 
	C200.877228,298.748230 195.072021,297.301270 193.791733,293.464752 
	C193.161972,291.577698 191.075333,290.176758 189.088898,288.123688 
	C185.398178,286.487640 184.690384,284.007843 185.002686,280.991058 
z"/>
<path fill="#182D41" opacity="1.000000" stroke="none" 
	d="
M282.837189,321.003662 
	C290.432404,304.457916 301.306946,290.612885 316.700348,280.437500 
	C317.013855,281.126953 317.030701,281.623932 317.047607,282.120972 
	C314.172180,284.825317 311.296631,287.529541 308.421661,290.234375 
	C308.181335,290.460510 307.802551,290.651855 307.727631,290.925049 
	C305.580872,298.752777 297.625122,301.652618 293.521942,307.753662 
	C291.860901,310.223450 291.170410,313.345947 289.759644,316.746155 
	C287.266418,318.548431 285.051788,319.776062 282.837189,321.003662 
z"/>
<path fill="#0B0904" opacity="1.000000" stroke="none" 
	d="
M336.986206,265.980133 
	C334.176544,266.762024 331.366882,267.543945 328.281555,268.169128 
	C337.610321,259.663818 349.558960,256.540802 361.347229,253.064728 
	C363.083588,252.552704 364.816559,251.971085 366.593292,251.674881 
	C367.719055,251.487198 368.923004,251.768585 370.091858,251.839569 
	C369.955322,253.144302 369.818756,254.449020 369.245178,255.607849 
	C361.376740,254.416428 355.330566,258.344269 348.559631,261.021881 
	C344.455048,262.689972 340.720642,264.335052 336.986206,265.980133 
z"/>
<path fill="#181105" opacity="1.000000" stroke="none" 
	d="
M240.542053,99.010124 
	C237.519440,103.786514 234.546005,108.983688 230.580353,113.260941 
	C223.756454,120.621056 216.314346,127.408005 208.824707,134.578308 
	C210.373718,131.757629 211.852798,128.454254 214.159042,125.896797 
	C220.163712,119.238045 226.545807,112.920364 232.727753,106.419495 
	C233.248993,105.871391 233.724197,104.945435 233.669601,104.237534 
	C233.285889,99.261292 236.620895,99.053108 240.542053,99.010124 
z"/>
<path fill="#142433" opacity="1.000000" stroke="none" 
	d="
M209.439880,313.967804 
	C211.695053,315.583466 213.591446,317.264832 215.874573,318.967285 
	C218.813919,324.073517 221.366501,329.158600 223.555099,334.610779 
	C222.124985,334.989441 221.058868,335.000977 219.992752,335.012512 
	C215.651764,335.167847 214.364761,332.723206 215.354004,329.003052 
	C216.302887,325.434601 215.558380,323.839325 211.709885,322.643494 
	C206.760971,321.105682 205.933075,317.202332 209.439880,313.967804 
z"/>
<path fill="#181105" opacity="1.000000" stroke="none" 
	d="
M141.012390,117.016273 
	C142.081375,117.007690 143.150360,116.999100 144.620941,116.981964 
	C145.963394,118.207832 146.904266,119.442261 147.845139,120.676682 
	C146.752808,121.445526 145.620758,122.164406 144.577118,122.994453 
	C142.840500,124.375671 140.218567,125.526161 139.646225,127.311378 
	C138.315674,131.461578 137.410294,133.474548 132.570251,130.563080 
	C130.356079,129.231171 126.641685,130.393234 123.287949,130.227295 
	C122.977867,129.576294 122.987526,129.122177 123.402504,128.321899 
	C126.869034,127.314407 129.930252,126.653099 133.326752,125.919495 
	C136.109650,123.232559 138.557266,120.617912 141.007385,117.756516 
	C141.009888,117.509773 141.012390,117.016273 141.012390,117.016273 
z"/>
<path fill="#0B0904" opacity="1.000000" stroke="none" 
	d="
M96.069832,320.560608 
	C96.741257,318.945587 97.381149,317.738251 98.021034,316.530884 
	C98.475159,316.595276 98.929276,316.659637 99.383392,316.724030 
	C99.587845,318.206177 99.895012,319.682617 99.978027,321.171539 
	C100.258797,326.207184 98.927048,331.475433 102.556335,335.998718 
	C103.144623,336.731903 103.134972,338.380096 102.756248,339.354462 
	C102.151878,340.909363 101.006004,342.253815 100.089081,343.687225 
	C98.874405,342.351959 96.724464,341.093842 96.606804,339.668060 
	C96.094612,333.461426 96.173882,327.205994 96.069832,320.560608 
z"/>
<path fill="#181105" opacity="1.000000" stroke="none" 
	d="
M152.928635,261.051819 
	C160.781921,265.518219 168.635223,269.984619 176.552643,274.896088 
	C176.419815,275.870148 176.222839,276.399109 176.025848,276.928070 
	C171.262558,275.181946 166.312317,273.810455 161.801117,271.559174 
	C158.750076,270.036591 156.317017,267.275635 153.270401,264.593384 
	C152.931702,263.096039 152.930161,262.073944 152.928635,261.051819 
z"/>
<path fill="#181105" opacity="1.000000" stroke="none" 
	d="
M99.977646,199.990860 
	C99.984955,216.229019 100.016258,232.467255 99.974564,248.705292 
	C99.968056,251.240387 100.651169,254.303040 96.389297,254.966827 
	C95.992996,251.843140 95.708458,248.652481 96.071526,245.537323 
	C96.359184,243.069305 97.513428,240.712570 98.144104,238.270569 
	C98.550285,236.697861 98.928169,235.061539 98.937050,233.451614 
	C98.996651,222.648026 98.953873,211.843872 99.201500,200.545258 
	C99.631699,200.030716 99.804672,200.010788 99.977646,199.990860 
z"/>
<path fill="#060D13" opacity="1.000000" stroke="none" 
	d="
M275.297729,344.811523 
	C274.485077,344.166199 273.337219,343.121094 273.526764,342.458557 
	C274.592255,338.733917 275.979736,335.101440 277.764435,331.374084 
	C279.214996,331.190765 280.158478,331.070831 281.101990,330.950867 
	C285.503448,335.462189 284.909393,338.258331 279.619202,340.238403 
	C277.962250,340.858582 276.909454,343.092896 275.297729,344.811523 
z"/>
<path fill="#181105" opacity="1.000000" stroke="none" 
	d="
M337.056580,266.271515 
	C340.720642,264.335052 344.455048,262.689972 348.896118,261.153839 
	C351.746887,261.191040 353.891052,261.119293 356.035187,261.047546 
	C353.355042,265.566742 350.579010,269.626312 344.119995,267.253540 
	C342.653259,266.714752 340.628571,267.694946 338.466125,268.026062 
	C337.756683,267.571747 337.441833,267.067322 337.056580,266.271515 
z"/>
<path fill="#312713" opacity="1.000000" stroke="none" 
	d="
M152.556076,261.016937 
	C152.930161,262.073944 152.931702,263.096039 152.912109,264.498230 
	C152.484604,264.885986 152.078201,264.893677 151.216309,264.734009 
	C150.550034,264.336853 150.320312,264.127838 150.071640,263.939606 
	C145.074860,261.409729 140.191193,258.389648 133.690033,260.611694 
	C132.491486,260.945587 131.779251,260.940155 131.067032,260.934753 
	C131.067032,260.934753 131.038574,260.466400 131.013153,260.233154 
	C130.647171,255.607941 132.488754,254.258972 136.659592,255.742310 
	C141.804657,257.572083 147.006317,259.242676 152.556076,261.016937 
z"/>
<path fill="#312713" opacity="1.000000" stroke="none" 
	d="
M356.424652,261.014740 
	C353.891052,261.119293 351.746887,261.191040 349.266235,261.130798 
	C355.330566,258.344269 361.376740,254.416428 368.951630,255.743622 
	C369.042755,257.387268 368.990417,258.749237 368.577637,260.533997 
	C367.506958,260.944183 366.796753,260.931549 366.086517,260.918884 
	C364.732666,260.455597 363.362823,259.579437 362.028931,259.631104 
	C360.275848,259.699097 358.551056,260.497589 356.424652,261.014740 
z"/>
<path fill="#142433" opacity="1.000000" stroke="none" 
	d="
M281.137024,330.594360 
	C280.158478,331.070831 279.214996,331.190765 278.025604,331.144958 
	C278.183411,329.265594 278.587067,327.551971 279.032959,325.467896 
	C280.162964,323.859406 281.250732,322.621399 282.587830,321.193512 
	C285.051788,319.776062 287.266418,318.548431 289.778748,317.145386 
	C292.822327,320.214478 292.553162,322.888733 289.336121,322.786285 
	C283.767334,322.608948 282.575195,326.333374 281.137024,330.594360 
z"/>
<path fill="#142433" opacity="1.000000" stroke="none" 
	d="
M240.812897,211.150085 
	C236.070786,216.079620 230.944092,221.000870 225.496399,226.011749 
	C226.127930,224.210052 226.795349,222.085892 228.102875,220.484406 
	C229.865723,218.325287 231.983978,216.388123 234.207764,214.694519 
	C236.090912,213.260315 238.340759,212.307587 240.812897,211.150085 
z"/>
<path fill="#142433" opacity="1.000000" stroke="none" 
	d="
M176.248352,277.217957 
	C176.222839,276.399109 176.419815,275.870148 176.797165,275.115906 
	C179.578949,276.714020 182.180344,278.537415 184.892212,280.675903 
	C184.690384,284.007843 185.398178,286.487640 188.796753,287.942230 
	C186.149750,289.388824 183.670654,289.879211 182.689087,285.685730 
	C182.393982,284.424957 180.844559,283.484131 179.958176,282.328888 
	C178.751297,280.755951 177.629257,279.117950 176.248352,277.217957 
z"/>
<path fill="#181105" opacity="1.000000" stroke="none" 
	d="
M400.047974,243.380905 
	C401.104462,242.934998 402.139832,242.961090 403.563324,242.969818 
	C403.966827,247.988937 403.982269,253.025421 403.596710,258.532013 
	C402.128052,259.003540 401.060364,259.005005 399.992676,259.006439 
	C399.990509,258.259155 399.988342,257.511902 399.983002,256.391479 
	C399.995514,251.963196 400.011169,247.908051 400.047974,243.380905 
z"/>
<path fill="#080808" opacity="1.000000" stroke="none" 
	d="
M227.003662,340.997314 
	C227.823990,341.699921 229.320831,342.371521 229.354645,343.110107 
	C229.570633,347.826355 229.464691,352.557343 229.464691,357.852112 
	C225.487411,354.701447 224.834106,350.464996 225.308594,345.305481 
	C226.083755,343.488678 226.543716,342.243011 227.003662,340.997314 
z"/>
<path fill="#312713" opacity="1.000000" stroke="none" 
	d="
M99.978699,199.590042 
	C99.804672,200.010788 99.631699,200.030716 99.199089,200.083969 
	C98.196854,199.815231 96.824051,199.546677 96.805931,199.206055 
	C96.523117,193.889923 96.415367,188.564453 96.610931,183.087967 
	C98.078880,184.259247 94.534615,188.257507 99.723419,187.190216 
	C99.967278,188.395355 99.988998,189.791519 99.830780,191.859772 
	C99.768394,193.681931 99.885956,194.831985 100.003517,195.982056 
	C99.995590,197.051117 99.987663,198.120163 99.978699,199.590042 
z"/>
<path fill="#142433" opacity="1.000000" stroke="none" 
	d="
M317.334595,282.334045 
	C317.030701,281.623932 317.013855,281.126953 316.991058,280.255615 
	C319.250641,278.454041 321.516113,277.026794 323.960846,275.824097 
	C324.087128,277.043152 324.027130,278.037415 323.982330,279.032318 
	C323.742218,284.365845 322.579590,285.009216 317.334595,282.334045 
z"/>
<path fill="#0B0904" opacity="1.000000" stroke="none" 
	d="
M399.991180,259.469238 
	C401.060364,259.005005 402.128052,259.003540 403.595825,258.998596 
	C403.977936,262.292267 404.081635,265.597534 403.863770,268.881409 
	C403.802856,269.799988 402.793701,270.655640 402.219543,271.540161 
	C401.496643,270.638214 400.245392,269.788788 400.149536,268.824524 
	C399.857239,265.884125 400.010101,262.899445 399.991180,259.469238 
z"/>
<path fill="#0B0904" opacity="1.000000" stroke="none" 
	d="
M115.481628,351.412842 
	C112.451591,356.785065 112.118027,356.862610 107.918327,352.700989 
	C106.248001,351.045837 104.771446,349.195160 103.688202,346.762451 
	C107.957344,347.597717 110.487831,352.408813 115.481628,351.412842 
z"/>
<path fill="#312713" opacity="1.000000" stroke="none" 
	d="
M224.951294,63.440884 
	C226.453598,63.085587 227.785522,63.057922 229.516052,63.023392 
	C227.164505,67.580086 224.414352,72.143639 221.400818,76.916870 
	C221.091354,76.316994 221.045258,75.507431 220.990479,74.292114 
	C222.248169,70.513741 223.514557,67.141129 224.951294,63.440884 
z"/>
<path fill="#0B0904" opacity="1.000000" stroke="none" 
	d="
M151.565704,381.115845 
	C152.467545,382.001770 153.005508,382.837738 153.543488,383.673706 
	C151.385880,384.911621 149.283218,386.272186 147.024261,387.283752 
	C146.573410,387.485687 144.855301,386.349945 144.858795,385.838837 
	C144.887619,381.633972 147.825317,380.998627 151.565704,381.115845 
z"/>
<path fill="#060D13" opacity="1.000000" stroke="none" 
	d="
M226.809235,340.740723 
	C226.543716,342.243011 226.083755,343.488678 225.307159,344.872437 
	C223.331039,341.929504 221.671570,338.848480 220.002441,335.390015 
	C221.058868,335.000977 222.124985,334.989441 223.590424,334.980042 
	C224.520065,335.849121 225.050385,336.716095 225.800568,337.794678 
	C226.218521,338.832245 226.416641,339.658173 226.809235,340.740723 
z"/>
<path fill="#142433" opacity="1.000000" stroke="none" 
	d="
M224.737579,226.195709 
	C219.842636,229.903046 214.565399,233.616638 208.977020,237.441986 
	C208.661331,237.225510 208.522125,236.699509 208.671768,236.597641 
	C213.855881,233.066986 217.526398,227.242401 224.737579,226.195709 
z"/>
<path fill="#0B0904" opacity="1.000000" stroke="none" 
	d="
M131.596191,371.765442 
	C131.301437,370.758759 131.097382,369.247803 131.351608,369.166290 
	C133.493851,368.479462 135.719940,368.054108 138.027908,367.525604 
	C137.299530,372.834045 136.684799,373.246033 131.596191,371.765442 
z"/>
<path fill="#312713" opacity="1.000000" stroke="none" 
	d="
M269.223419,63.266083 
	C269.518677,62.699810 269.986542,62.418167 270.722748,62.068260 
	C275.422577,63.064579 275.179596,66.946259 275.965942,70.614548 
	C275.986816,71.008926 275.526031,71.016518 275.296265,71.011948 
	C273.176361,68.521820 271.286163,66.036263 269.223419,63.266083 
z"/>
<path fill="#181105" opacity="1.000000" stroke="none" 
	d="
M366.057526,261.375610 
	C366.796753,260.931549 367.506958,260.944183 368.571625,260.943237 
	C368.926056,264.053680 368.926056,267.177673 368.926056,270.301697 
	C368.115143,270.319275 367.304230,270.336853 366.493317,270.354431 
	C366.338379,267.513733 366.183472,264.673004 366.057526,261.375610 
z"/>
<path fill="#0B0904" opacity="1.000000" stroke="none" 
	d="
M122.809158,366.268188 
	C121.486237,364.771759 120.416748,363.510040 119.347267,362.248322 
	C119.665230,361.862640 119.983192,361.476959 120.301163,361.091248 
	C122.251495,362.280518 124.264977,363.383148 126.104607,364.724243 
	C126.526871,365.032104 126.351379,366.159912 126.450989,366.910370 
	C125.321518,366.774536 124.192047,366.638702 122.809158,366.268188 
z"/>
<path fill="#181105" opacity="1.000000" stroke="none" 
	d="
M131.042480,261.383209 
	C131.779251,260.940155 132.491486,260.945587 133.558517,260.934326 
	C133.913330,263.712524 133.913330,266.507446 133.913330,269.302338 
	C133.106064,269.326080 132.298813,269.349854 131.491547,269.373596 
	C131.333664,266.859619 131.175781,264.345642 131.042480,261.383209 
z"/>
<path fill="#0B0904" opacity="1.000000" stroke="none" 
	d="
M99.037399,293.711853 
	C99.245720,292.170227 99.467331,290.990692 99.688942,289.811157 
	C100.289879,289.854279 100.890816,289.897369 101.491745,289.940491 
	C101.349503,291.889374 101.207253,293.838226 101.065002,295.787109 
	C100.393570,295.216064 99.722130,294.645020 99.037399,293.711853 
z"/>
<path fill="#0B0904" opacity="1.000000" stroke="none" 
	d="
M158.771179,386.751068 
	C159.716721,385.501312 160.767334,384.548615 161.817947,383.595917 
	C162.198608,383.828064 162.579269,384.060211 162.959946,384.292358 
	C162.697662,385.602478 162.435379,386.912567 162.173096,388.222687 
	C161.074142,387.831177 159.975189,387.439667 158.771179,386.751068 
z"/>
<path fill="#0B0904" opacity="1.000000" stroke="none" 
	d="
M145.100739,377.571106 
	C143.433609,379.727173 143.433609,379.727173 141.020157,375.557098 
	C142.313171,376.158051 143.606186,376.759003 145.100739,377.571106 
z"/>
<path fill="#DDB156" opacity="1.000000" stroke="none" 
	d="
M200.699097,141.208328 
	C199.814621,142.175400 198.625824,143.220184 197.204651,144.129608 
	C198.113098,143.091507 199.253937,142.188782 200.699097,141.208328 
z"/>
<path fill="#312713" opacity="1.000000" stroke="none" 
	d="
M218.666336,74.099678 
	C218.237198,75.288315 217.434753,76.466667 216.379578,77.827408 
	C216.848907,76.702995 217.570969,75.396194 218.666336,74.099678 
z"/>
<path fill="#0B0904" opacity="1.000000" stroke="none" 
	d="
M113.675369,358.962799 
	C113.890060,358.880310 114.100235,358.930878 114.310410,358.981506 
	C114.097229,359.019623 113.884041,359.057739 113.675369,358.962799 
z"/>
<path fill="#181105" opacity="1.000000" stroke="none" 
	d="
M150.198181,264.139404 
	C150.320312,264.127838 150.550034,264.336853 150.910797,264.745056 
	C150.771683,264.783813 150.526321,264.589081 150.198181,264.139404 
z"/>
<path fill="#0B0904" opacity="1.000000" stroke="none" 
	d="
M255.492126,64.506668 
	C255.484467,64.486038 255.499771,64.527306 255.492126,64.506668 
z"/>
<path fill="#FEBD31" opacity="1.000000" stroke="none" 
	d="
M184.067123,155.912598 
	C186.659637,154.353729 189.097153,151.899094 191.876175,151.418304 
	C198.093369,150.342636 201.266464,145.936569 204.791504,141.291046 
	C209.110870,137.350220 213.046906,133.222580 217.718781,130.252350 
	C226.536682,124.646210 231.002930,114.987831 239.026611,108.578033 
	C243.289200,105.172813 245.819412,99.599007 249.689087,94.230705 
	C251.599335,96.514702 253.566742,98.564606 255.184204,100.860970 
	C259.125092,106.455986 262.904602,112.164719 266.746002,117.829758 
	C266.995728,118.198036 267.135284,118.802673 267.467010,118.929924 
	C274.982452,121.812599 279.481232,127.840057 283.591125,134.284744 
	C283.768738,134.563232 283.939453,134.961060 284.201721,135.053955 
	C293.884735,138.483978 298.837921,149.283875 309.450409,151.266693 
	C309.918671,151.354187 310.525970,151.573349 310.755859,151.931717 
	C315.521851,159.361252 324.902954,159.636520 331.165222,165.322083 
	C337.026672,170.643784 345.588440,172.872314 352.528687,177.162704 
	C358.006012,180.548706 362.840179,184.980270 367.912567,189.007187 
	C368.373108,189.372803 368.723755,190.173767 368.726776,190.774582 
	C368.776398,200.691010 368.762054,210.607773 368.762054,220.861755 
	C359.913300,222.367676 351.944672,225.119156 344.135010,224.724686 
	C332.526031,224.138290 321.108490,221.441086 311.060760,214.474762 
	C304.599091,209.994781 297.034668,207.095520 290.621063,202.559464 
	C286.152802,199.399231 282.446442,194.939941 279.024048,190.571793 
	C273.063843,182.964478 267.890259,174.733383 261.820557,167.221375 
	C255.588150,159.507996 243.593338,158.742905 236.726196,167.925369 
	C232.522491,173.546387 229.064102,179.730667 224.783539,185.286423 
	C221.413345,189.660614 217.926834,194.598587 213.311142,197.149628 
	C209.724625,199.131882 208.131470,202.176086 204.873016,204.805023 
	C203.148102,206.357010 202.028870,207.653900 200.909637,208.950806 
	C200.489594,208.990005 200.069580,209.029205 199.049301,209.171509 
	C197.979614,209.856110 197.510178,210.437622 197.040756,211.019150 
	C197.040756,211.019150 197.008575,211.007401 196.726562,211.111389 
	C195.945908,211.800735 195.447266,212.386108 194.948608,212.971466 
	C193.212250,213.652435 191.475891,214.333405 189.090210,215.114456 
	C187.967896,215.793579 187.494888,216.372604 187.021881,216.951645 
	C187.021881,216.951645 186.982513,216.969406 186.966431,216.984467 
	C180.489960,219.233856 173.540817,218.644821 167.085083,222.221786 
	C158.298370,227.090302 148.532211,225.927139 139.241821,222.199905 
	C130.931122,218.865738 130.933777,218.859909 130.954315,209.818069 
	C130.959610,207.490036 130.949417,205.161880 130.968491,202.833969 
	C131.048309,193.093369 132.762390,184.928314 143.159058,179.911163 
	C154.903900,174.243423 165.708328,166.634125 176.966919,159.945267 
	C179.126160,158.662460 181.494995,157.732422 183.879974,156.316254 
	C183.992844,155.992889 184.067123,155.912582 184.067123,155.912598 
z"/>
<path fill="#E5B651" opacity="1.000000" stroke="none" 
	d="
M201.231644,208.870728 
	C202.028870,207.653900 203.148102,206.357010 204.643250,205.057983 
	C203.863998,206.300781 202.708817,207.545731 201.231644,208.870728 
z"/>
<path fill="#E5B651" opacity="1.000000" stroke="none" 
	d="
M187.304596,216.873749 
	C187.494888,216.372604 187.967896,215.793579 188.727783,215.142883 
	C188.538864,215.646088 188.063095,216.220963 187.304596,216.873749 
z"/>
<path fill="#E5B651" opacity="1.000000" stroke="none" 
	d="
M195.241867,212.890976 
	C195.447266,212.386108 195.945908,211.800735 196.731598,211.127747 
	C196.524124,211.630249 196.029617,212.220367 195.241867,212.890976 
z"/>
<path fill="#E5B651" opacity="1.000000" stroke="none" 
	d="
M197.316742,210.928101 
	C197.510178,210.437622 197.979614,209.856110 198.735046,209.208252 
	C198.544952,209.706970 198.068832,210.272018 197.316742,210.928101 
z"/>
<path fill="#FEBD31" opacity="1.000000" stroke="none" 
	d="
M285.494781,198.498077 
	C285.483856,198.471466 285.505707,198.524673 285.494781,198.498077 
z"/>
<path fill="#010101" opacity="1.000000" stroke="none" 
	d="
M406.671631,63.227295 
	C405.954102,61.009792 405.108490,59.128651 405.068207,57.230427 
	C404.909393,49.744514 404.818512,42.247589 405.047211,34.765289 
	C405.386566,23.660629 415.730621,14.386198 427.816254,20.901789 
	C429.520111,21.820381 432.650116,22.389174 432.813660,23.469156 
	C433.494507,27.964825 433.931824,32.693989 433.235962,37.146439 
	C432.535492,41.628590 431.392639,45.452686 434.237671,49.920212 
	C435.766357,52.320717 435.064392,56.405464 434.722656,59.662415 
	C434.347748,63.235043 435.411896,63.739899 438.844879,63.582130 
	C449.372314,63.098339 459.941101,62.743786 470.459930,63.172142 
	C475.686127,63.384968 476.398590,65.888565 475.786835,71.342995 
	C475.331390,75.403557 475.764069,79.580299 475.987183,83.695213 
	C476.171814,87.100571 475.045593,88.646233 471.572357,90.200226 
	C459.993317,95.380943 447.996185,92.028648 436.238403,92.817917 
	C434.745331,92.918137 432.662292,91.293304 431.634735,89.893524 
	C428.933228,86.213539 425.619965,85.176796 421.584412,86.879997 
	C418.440125,88.207039 417.419891,86.296661 417.202332,84.055023 
	C416.902008,80.959778 415.118896,80.122108 412.764282,78.500229 
	C410.129700,76.685463 408.927826,72.560234 407.544373,69.255455 
	C406.836273,67.563965 407.092926,65.468628 406.671631,63.227295 
z"/>
<path fill="#010101" opacity="1.000000" stroke="none" 
	d="
M81.976456,38.002838 
	C86.340462,42.011761 90.420464,45.814232 94.670509,49.416050 
	C98.568069,52.719151 98.266457,53.544201 95.073311,57.472427 
	C93.712074,59.147022 93.729492,62.843540 94.508110,65.153473 
	C95.804886,69.000580 95.102882,72.839432 92.527687,74.568268 
	C90.120468,76.184334 85.958206,76.039780 82.791092,75.457916 
	C78.676239,74.701935 74.729240,72.872490 70.822403,71.236618 
	C69.567513,70.711182 67.670837,69.209129 67.776917,68.369896 
	C68.280960,64.382034 64.482986,63.260117 63.452068,61.152611 
	C60.026241,54.149189 49.863445,54.495480 48.488823,46.134342 
	C42.584049,43.125542 40.436119,37.673069 39.236931,31.684103 
	C38.517056,28.088928 41.839943,20.229568 45.049534,18.976633 
	C47.207455,18.134243 49.861496,18.483938 52.295849,18.445955 
	C56.505428,18.380274 60.716778,18.427740 64.974052,18.427740 
	C64.417030,25.616941 65.391418,26.919107 71.701202,28.627798 
	C72.746063,28.910746 73.730515,29.722345 74.543579,30.498442 
	C77.003845,32.846832 79.366119,35.297874 81.976456,38.002838 
M53.473454,20.499805 
	C53.473454,20.499805 53.513824,20.485132 53.473454,20.499805 
z"/>
<path fill="#46A7FA" opacity="1.000000" stroke="none" 
	d="
M301.712646,249.153152 
	C294.446960,255.211868 286.465546,260.207764 280.590027,267.019989 
	C273.539764,275.194244 265.186066,282.536316 260.916016,293.029083 
	C258.665527,298.559143 255.207825,303.621918 252.062088,308.752747 
	C250.651596,311.053314 248.381378,311.750305 247.388046,308.492798 
	C244.456223,298.878143 237.190140,291.827942 232.673294,283.137421 
	C230.671417,279.285797 226.337311,276.718079 223.813705,273.050262 
	C219.170074,266.301117 213.300079,261.101807 206.506577,256.661194 
	C203.569717,254.741486 201.036331,252.100586 198.687500,249.460098 
	C198.117310,248.819122 198.540176,246.106522 199.287506,245.663193 
	C208.047318,240.466766 216.976959,235.557648 225.804794,230.473770 
	C227.215805,229.661179 228.461853,228.470566 229.588470,227.270935 
	C235.567673,220.904388 241.406616,214.402191 247.546448,208.196609 
	C248.142685,207.593994 250.970673,208.180267 251.907990,209.092682 
	C260.863770,217.810608 267.953308,228.437927 280.167084,233.687943 
	C287.022308,236.634583 293.189575,241.219818 299.541260,245.263916 
	C300.656067,245.973724 301.149384,247.659668 301.712646,249.153152 
z"/>
<path fill="#181105" opacity="1.000000" stroke="none" 
	d="
M100.009476,195.586441 
	C99.885956,194.831985 99.768394,193.681931 99.831894,192.278915 
	C100.013779,193.080917 100.014610,194.135880 100.009476,195.586441 
z"/>
<path fill="#FEBD31" opacity="1.000000" stroke="none" 
	d="
M183.952988,156.030334 
	C183.913132,156.067795 183.718536,155.828690 183.718536,155.828690 
	C183.718536,155.828690 183.956894,155.793976 184.012009,155.853271 
	C184.067123,155.912582 183.992844,155.992889 183.952988,156.030334 
z"/>
<path fill="#010101" opacity="1.000000" stroke="none" 
	d="
M362.984619,91.004318 
	C364.571106,89.914284 366.119354,89.128738 366.923431,87.868408 
	C369.740204,83.453148 372.929382,82.091270 377.918274,83.654686 
	C381.062347,84.639977 384.325104,85.401665 387.277924,86.804153 
	C391.221130,88.677055 393.431122,91.606255 391.913025,96.476631 
	C391.391174,98.150810 391.937225,100.265526 392.348022,102.100029 
	C393.168915,105.766029 393.835419,109.164047 388.693481,110.080284 
	C387.986664,110.206230 387.092957,110.720299 386.764771,111.317780 
	C382.116455,119.779785 373.487762,119.992607 365.632812,113.791145 
	C359.749054,109.145920 357.818665,104.082260 358.015106,97.306244 
	C358.107208,94.129379 359.277649,91.836044 362.984619,91.004318 
z"/>
<path fill="#020202" opacity="1.000000" stroke="none" 
	d="
M64.885971,384.052429 
	C69.946617,381.822418 72.147339,386.539276 74.864586,388.295746 
	C81.100967,392.327087 77.893578,408.934204 70.607430,410.828308 
	C66.131432,411.991852 61.013790,411.902100 56.418179,411.075165 
	C50.982723,410.097168 49.232174,405.215698 48.320122,400.233948 
	C47.363457,395.008514 48.721649,390.333435 51.846783,386.176086 
	C52.320232,385.546265 53.589287,385.372803 54.523697,385.256653 
	C57.854523,384.842590 61.199749,384.544373 64.885971,384.052429 
z"/>
<path fill="#020202" opacity="1.000000" stroke="none" 
	d="
M408.318024,472.990540 
	C399.937592,472.004883 396.030060,465.793518 398.577179,458.250153 
	C398.776337,457.660370 399.084778,456.751312 398.814178,456.412140 
	C394.187988,450.613983 400.514526,448.747314 402.779083,445.505188 
	C403.225616,444.865936 404.938446,444.283600 405.399384,444.612152 
	C409.267609,447.369049 413.115417,445.701660 417.173645,445.485657 
	C419.620056,445.355438 423.498169,448.273987 424.591858,450.763275 
	C429.016510,460.833954 424.441284,474.541382 411.259613,473.009857 
	C410.437897,472.914398 409.595642,472.995483 408.318024,472.990540 
z"/>
<path fill="#020202" opacity="1.000000" stroke="none" 
	d="
M364.998169,393.000610 
	C370.260254,393.005035 375.558350,392.662933 380.771637,393.178680 
	C382.932861,393.392517 386.074066,394.989960 386.754425,396.741119 
	C388.701935,401.753784 390.754730,407.179382 390.699371,412.420776 
	C390.587952,422.967041 378.247589,429.226807 369.533478,423.619354 
	C365.821533,421.230804 362.534760,418.181427 359.057190,415.429291 
	C358.929291,415.328033 358.726196,415.193420 358.727325,415.075989 
	C358.771362,410.571045 358.148621,405.908813 359.133667,401.616058 
	C359.809662,398.670013 362.723785,396.237518 364.820251,393.286224 
	C365.003082,392.996979 365.000000,393.000000 364.998169,393.000610 
z"/>
<path fill="#020202" opacity="1.000000" stroke="none" 
	d="
M141.039551,116.607704 
	C141.012390,117.016273 141.009888,117.509773 140.629578,117.755066 
	C133.643982,117.783310 133.124481,118.355331 132.991455,125.991791 
	C129.930252,126.653099 126.869034,127.314407 123.403839,127.981506 
	C122.564926,127.749054 122.156342,127.397324 121.691185,127.289406 
	C113.147690,125.307335 112.986526,125.091888 114.569557,116.889771 
	C110.158134,119.892456 109.084808,116.392006 108.300743,113.590683 
	C105.251450,102.696136 115.324417,91.926865 126.379303,94.117752 
	C127.292435,94.298721 128.492722,94.712006 128.910477,95.407333 
	C130.373001,97.841660 131.714523,98.673790 134.898224,97.761086 
	C136.228455,97.379745 139.870712,100.524834 140.320877,102.543877 
	C141.299438,106.932877 140.901779,111.628723 141.039551,116.607704 
z"/>
<path fill="#080808" opacity="1.000000" stroke="none" 
	d="
M133.326752,125.919495 
	C133.124481,118.355331 133.643982,117.783310 140.627075,118.001816 
	C138.557266,120.617912 136.109650,123.232559 133.326752,125.919495 
z"/>
<path fill="#050505" opacity="1.000000" stroke="none" 
	d="
M53.493637,20.492470 
	C53.513824,20.485132 53.473454,20.499805 53.493637,20.492470 
z"/>
</svg>